<?xml version="1.0" encoding="utf-8"?>
<!-- Generator: Adobe Adobe Illustrator 24.2.0, SVG Export Plug-In . SVG Version: 6.00 Build 0)  -->
<svg version="1.1" id="Layer_1" xmlns="http://www.w3.org/2000/svg" xmlns:xlink="http://www.w3.org/1999/xlink" x="0px" y="0px"
	 viewBox="0 0 1130 1143" style="enable-background:new 0 0 1130 1143;" xml:space="preserve">
<style type="text/css">
	.st0{clip-path:url(#SVGID_2_);fill:#D1AE4F;}
	.st1{clip-path:url(#SVGID_4_);}
	.st2{clip-path:url(#SVGID_4_);fill:#D1AE4F;}
</style>
<g>
	<g>
		<g>
			<defs>
				<rect id="SVGID_1_" y="321.85" width="1130" height="602.96"/>
			</defs>
			<clipPath id="SVGID_2_">
				<use xlink:href="#SVGID_1_"  style="overflow:visible;"/>
			</clipPath>
			<path class="st0" d="M1109.78,637.12c-16.09,0-32.19-0.41-48.28-0.96c-30.01-1.04-59.99-2.83-89.92-5.13
				c-24.86-1.9-49.68-4.22-74.46-6.88c-0.81-0.08-1.63-0.18-2.44-0.26c-1.09-0.12-1.57-0.96-1.53-1.8
				c-0.04-0.84,0.44-1.69,1.53-1.81c24.31-2.62,48.65-4.92,73.02-6.84c30.39-2.4,60.83-4.23,91.29-5.34
				c16.09-0.59,32.19-0.99,48.29-1.06c0.83,0,1.67,0,2.5,0c8.28-0.01,15.2,6.84,15.2,15.04c0,8.19-6.91,15.04-15.19,15.04
				C1109.79,637.12,1109.79,637.12,1109.78,637.12z"/>
			<path class="st0" d="M1.35,622.08c0-7.42,6.27-13.63,13.76-13.63c23.07,0.02,46.15,0.89,69.19,2.11
				c23.43,1.24,46.85,2.96,70.21,5.06c19.42,1.75,38.82,3.79,58.19,6.08c0.97,0.11,1.93,0.23,2.9,0.34c0.03,0,0.03,0.05,0,0.05
				c-18.08,2.02-36.14,4.09-54.26,5.79c-23.18,2.17-46.4,3.93-69.64,5.28c-23.71,1.38-47.45,2.3-71.2,2.5
				c-1.8,0.02-3.6,0.03-5.39,0.03C7.61,635.71,1.35,629.5,1.35,622.08z"/>
			<path class="st0" d="M908.45,451.43c31.67-22.44,63.89-44.14,96.53-65.17c30.79-19.85,61.99-39.14,93.86-57.26
				c1.36-0.77,2.71-1.53,4.07-2.3c7.66-4.32,17.64-1.85,22.14,5.74c4.41,7.45,1.85,17.62-5.81,21.92
				c-30.64,17.19-62.01,33.17-93.57,48.63c-34.86,17.07-70.14,33.33-105.71,48.89c-2.98,1.3-5.96,2.58-8.94,3.89
				c0,0,0-0.01-0.01-0.01c-0.31,0.12-0.61,0.18-0.91,0.18C907.94,455.94,906.25,452.99,908.45,451.43z"/>
			<path class="st0" d="M1092.68,889.27c-14.32-10.19-28.38-20.75-42.31-31.47c-22.86-17.57-45.34-35.63-67.48-54.07
				c-24.21-20.16-48.01-40.78-71.47-61.79c-0.82-0.73-1.63-1.47-2.46-2.2c0.01,0,0.01,0,0.01,0c-0.06-0.05-0.11-0.1-0.17-0.15
				c-0.03-0.02,0.01-0.06,0.03-0.04c24.74,13.74,49.32,27.75,73.63,42.22c24.38,14.51,48.52,29.45,72.33,44.87
				c8.24,5.34,16.44,10.73,24.6,16.2c-0.53-0.35-1.05-0.7-1.58-1.06c11.37,7.59,22.67,15.27,33.81,23.18
				c6.86,4.88,7.83,15.08,2.8,21.52c-3.06,3.93-7.56,5.87-12.14,5.87C1098.95,892.37,1095.57,891.33,1092.68,889.27z"/>
			<path class="st0" d="M223.38,475.89c-23.52-14.3-46.81-28.98-69.79-44.13c-24.34-16.04-48.36-32.57-71.9-49.75
				c-8.11-5.92-16.17-11.91-24.12-18.04c-6.17-4.76-7.39-13.8-2.59-19.95c4.76-6.1,13.97-7.35,20.15-2.57
				c19.9,15.39,39.22,31.54,58.26,47.97c21.44,18.5,42.5,37.46,63.16,56.83c9.62,9.02,19.18,18.13,28.64,27.32c0,0,0,0,0,0
				c0.93,0.92,0.13,2.55-1.04,2.55C223.9,476.11,223.65,476.04,223.38,475.89z"/>
			<path class="st0" d="M13.5,923.76c-3.75-1.02-7.01-3.51-8.98-6.83c-3.98-6.72-1.88-16.62,5.39-20.35
				c23.52-12.07,47.5-23.28,71.6-34.14c27.39-12.33,55.08-24.02,82.95-35.22c18.13-7.29,36.45-14.08,54.64-21.22
				c0.03-0.01,0.06,0.03,0.03,0.05c-19.46,13.31-39.43,25.96-59.41,38.5c-24.47,15.37-49.23,30.29-74.29,44.68
				c-19.89,11.42-39.95,22.57-60.36,33.04c-2.48,1.27-5.08,2.02-7.76,2.02C16.06,924.28,14.79,924.11,13.5,923.76z"/>
		</g>
		<g>
			<defs>
				<rect id="SVGID_3_" x="240.84" width="638.1" height="1143"/>
			</defs>
			<clipPath id="SVGID_4_">
				<use xlink:href="#SVGID_3_"  style="overflow:visible;"/>
			</clipPath>
			<path class="st1" d="M875.83,729.4c-0.34-1.99-0.68-3.98-1.02-5.97c0.14,0.61,0.27,1.23,0.41,1.84
				c0.99,5.79,1.98,11.58,2.97,17.37c0.07,0.59,0.14,1.18,0.21,1.77C877.54,739.41,876.69,734.41,875.83,729.4z"/>
			<path class="st1" d="M413.76,783.41c-3.65-4.69-3.12-12.51,2.08-15.99c0.41-0.28,0.81-0.55,1.22-0.82c0-0.01,0.01-0.01,0.01-0.01
				c0.73-0.49,1.45-0.97,2.17-1.45c0.05-0.03,0.11-0.05,0.16-0.08c0.15-0.07,0.3-0.15,0.42-0.25c0.43-0.23,0.86-0.46,1.25-0.74
				c0.19-0.13,0.33-0.29,0.45-0.47c1.76-1.18,3.53-2.36,5.29-3.55c0.17-0.02,0.35-0.08,0.49-0.19c0.12-0.08,0.2-0.19,0.26-0.32
				c0.01,0,0.02-0.01,0.03-0.02c0,0.02,0,0.03-0.01,0.04c15.94-10.69,31.9-21.38,47.84-32.05l19.49-13.05
				c9.02-6.05,18.05-12.11,27.17-18.19l0.19-0.13c0.27-0.21,0.56-0.4,0.97-0.65l-0.01-0.01c0.04-0.02,0.07-0.04,0.11-0.06
				l-0.11,0.08c1.83-1.09,3.92-1.67,6.07-1.67c3.61,0,6.92,1.59,9.09,4.38c1.85,2.36,2.67,5.47,2.24,8.53
				c-0.41,3.03-1.94,5.67-4.49,7.55c-0.28,0.19-0.55,0.37-0.96,0.64l-0.25,0.17l-35.93,24.06l-18.34,12.3l-18.9,12.65
				c-8.4,5.63-16.81,11.27-25.22,16.92c-1.19,0.8-2.39,1.6-3.58,2.41c-0.18-0.1-0.38-0.13-0.58-0.11c-0.47,0.07-0.83,0.48-0.83,0.95
				c0,0.03,0,0.07,0,0.1c-0.22,0.15-0.44,0.3-0.66,0.44c-0.43-0.15-0.91-0.15-1.36,0.03c-0.75,0.29-1.42,0.81-2.15,1.17
				c0.08-0.03,0.15-0.08,0.23-0.11c-0.25,0.13-0.5,0.24-0.75,0.37c0.08-0.04,0.15-0.08,0.23-0.12c-0.17,0.08-0.33,0.16-0.5,0.23
				c-0.34,0.16-0.68,0.29-1.02,0.46c0.08-0.04,0.15-0.08,0.23-0.12c-0.63,0.29-1.3,0.64-1.81,1.13c-0.27,0.02-0.55,0.03-0.82,0.03
				C419.58,787.89,415.92,786.18,413.76,783.41z"/>
			<path class="st1" d="M512.13,111.78c-0.24,1.46-0.48,2.97-0.61,4.46c-0.07,0.76-0.13,1.52-0.16,2.28
				c-0.09,0.45-0.16,0.92-0.19,1.38c-0.04,0.66-0.04,1.32-0.03,1.98v0.91c0,0.75,0,1.51-0.02,2.27c0,0,0,0,0.01,0
				c-0.01,0.03-0.01,0.08-0.01,0.08c-0.03,0.89-0.07,1.64-0.13,2.4l-0.03,0.24l-0.03,0.28l-0.08,0.77
				c-0.03,0.33-0.08,0.65-0.09,0.98c-0.08,1.37-0.07,2.72-0.05,4.02l0.01,0.5c0.01,0.95,0,1.89-0.01,2.84l-0.02,0.59
				c-0.01,0.48-0.03,0.96,0.01,1.43c0.02,0.24,0.05,0.49,0.08,0.73c0.07,0.49,0.15,0.95,0.25,1.39l0.1,0.49l-0.03,1.69l-0.01,0.98
				c0,0.99,0,1.98-0.04,2.97l-0.03,0.47c-0.02,0.58-0.04,1.15-0.12,1.71l0.04,0.35l0.04,0.36c6.46,0.06,12.95,0.12,19.44,0.13
				c11.23,0.02,22.64,0.25,33.68,0.49c6.89,0.14,13.8,0.29,20.69,0.38l3.24,0.04c6.76,0.08,13.74,0.15,20.57,0.66
				c0.73-4.96,1.31-10.13,1.76-15.78c0.67-12.3,0.75-21.71,0.26-30.52c-0.68-8.07-1.85-16.32-3.57-25.23
				c-0.55-2.31-1.13-4.48-1.8-6.62c-1.52-3.95-3.33-7.76-5.05-11.28c-1.16-2.18-2.3-4.17-3.49-6.07c-1.98-2.76-3.91-5.28-5.89-7.71
				c-0.38-0.4-0.77-0.8-1.18-1.2c-0.85-0.68-1.72-1.32-2.6-1.96c-1.44-0.91-2.9-1.79-4.47-2.67c-1.34-0.6-2.69-1.16-4.07-1.67
				c-0.91-0.27-1.82-0.52-2.74-0.75c-1.29-0.19-2.58-0.34-3.89-0.45c-0.03-0.01-0.04-0.02-0.07-0.03c-0.03,0-0.08,0-0.11,0
				c-0.08-0.05-0.16-0.09-0.25-0.13c-0.29-0.09-0.53-0.14-0.79-0.14c-0.09,0-0.19,0.01-0.29,0.03c-0.13,0.02-0.25,0.04-0.37,0.07
				c-0.03,0-0.07,0-0.09,0c-0.02,0-0.03,0.01-0.04,0.01c-0.04,0-0.09-0.01-0.14-0.01c-0.36-0.01-0.64-0.03-0.92-0.06
				c-0.35-0.03-0.7-0.07-1.05-0.08c-0.89-0.07-1.78-0.11-2.67-0.11c-1.36,0-2.63,0.14-3.87,0.28l-0.97,0.11
				c-0.97,0.1-1.93,0.2-2.9,0.37c-1.28,0.22-2.54,0.46-3.81,0.71l-0.48,0.08c-0.91,0.18-1.86,0.35-2.74,0.68
				c-0.41,0.16-0.84,0.33-1.25,0.49c-0.45,0.18-0.91,0.36-1.36,0.53l0.04-0.02l-0.03,0.01c-0.27,0.1-0.54,0.19-0.8,0.32
				c-0.52,0.25-1.02,0.55-1.52,0.84l-0.24,0.15l-0.25,0.14l-0.5,0.28c-2.36,1.39-4.59,3.2-6.61,5.37c-1.45,1.53-3.13,3.33-4.7,5.22
				c-1.7,2.01-3.01,3.74-4.11,5.44c-0.67,1.04-1.23,2.03-1.7,3.02l-0.66,0.99c-1.1,1.69-2.17,3.55-3.17,5.53
				c-0.94,1.88-1.72,3.81-2.33,5.73L520.85,77l-0.15,0.38c-0.87,1.57-1.69,3.19-2.43,4.84c-1.42,3.19-2.97,6.93-3.18,10.87
				l-0.02,0.29l-0.01,0.29c-0.06,0.36-0.11,0.71-0.15,1.07c-0.06,0.44-0.11,0.88-0.16,1.32l-0.1,0.62
				c-0.07,0.39-0.14,0.76-0.18,1.15c-0.08,0.65-0.17,1.32-0.25,1.97c-0.06,0.38-0.1,0.75-0.14,1.11c-0.03,0.35-0.05,0.7-0.06,1.05
				c-0.2,0.98-0.47,1.93-0.73,2.88l-0.36,1.33c-0.1,0.39-0.14,0.78-0.18,1.18l-0.04,0.47c-0.07,0.51-0.12,1.03-0.16,1.55
				c-0.13,0.58-0.24,1.15-0.32,1.73l0.04-0.23L512.13,111.78z M490.47,224.1c0.15,0.93-0.01,1.95-0.58,2.78
				c-0.14,0.22-0.32,0.41-0.58,0.61c0.03,0.01,0.04,0.03,0.06,0.04c0.41,0.28,0.73,0.68,0.92,1.12c0.19,0.44,0.26,0.9,0.22,1.37
				c18.18,1.03,36.42,1.37,56.67,1.67c2.92,0.05,5.84,0.08,8.77,0.12c7.28,0.08,14.81,0.17,22.22,0.39
				c7.71,0.24,17.88,0.51,28.2,0.51c1.47,0,2.93,0,4.4-0.02c4.12-0.03,7.89-0.14,11.52-0.37l4.94-0.36c3.6-0.27,7.19-0.54,10.8-0.76
				c2.51-0.14,5.02-0.25,7.53-0.35c2.11-0.08,4.23-0.18,6.34-0.29c0.43-0.04,0.86-0.08,1.3-0.13c0-0.03,0-0.05,0-0.08
				c-0.07-7.43-0.26-14.01-0.61-20.08c-0.35-4.15-0.91-8.23-1.41-11.66c-0.14-0.96-0.3-1.92-0.46-2.88
				c-0.13-0.73-0.25-1.46-0.36-2.19c-7.72-0.09-13.64-0.35-19.18-0.83c-4.2-0.37-8.45-0.87-12.56-1.36
				c-4.34-0.51-8.84-1.05-13.27-1.41c-8.47-0.49-17.11-0.56-25.45-0.62l-4.89-0.03c-6.49-0.07-13.09-0.23-19.46-0.39
				c-4.13-0.11-8.27-0.21-12.41-0.29c-4.74-0.1-9.49-0.12-14.22-0.12l-4.74,0.01h-4.63c-2.19,0-4.37,0-6.55-0.01
				c-10.57-0.06-21.3-0.29-31.68-0.49c-4.04-0.08-8.08-0.12-12.11-0.12c-2.08,0-4.16,0.01-6.24,0.03c0.01,0.08,0.02,0.18,0.03,0.26
				c0.28,3.25,0.52,6.36,0.73,9.47c0.25,4.26,0.26,8.56,0.25,12.59c0.05-0.01,0.1-0.02,0.14-0.03c0.93-0.17,1.89-0.31,2.85-0.41
				l0.99-0.11c1.22-0.14,2.45-0.29,3.68-0.39c3.2-0.28,6.52-0.57,9.78-0.7c1.2-0.05,2.41-0.09,3.62-0.13
				c0.44-0.26,0.95-0.41,1.47-0.41h13.62h6.3l1.74,0.02l1.75,0.01c0.48,0,0.97,0,1.46-0.02c0.14-0.02,0.3-0.03,0.45-0.03
				c0.78,0,1.5,0.29,2.04,0.83c0.24,0.24,0.44,0.53,0.58,0.84c0.97,0.39,1.6,1.2,1.74,2.21c0.1,0.76-0.14,1.6-0.66,2.24
				c-0.47,0.59-1.13,0.94-1.82,1c-0.54,0.04-1.08,0.06-1.63,0.06l-0.98-0.02h-0.65c-0.24,0.39-0.61,0.74-1.05,0.98
				c-0.17,0.49-0.49,0.91-0.91,1.22c-0.91,0.66-1.95,0.67-2.96,0.68h-2.18h-0.72c-0.33,0.75-0.99,1.29-1.79,1.47
				c-0.69,0.16-1.37,0.19-1.97,0.21c0.01,0.02,0.02,0.04,0.02,0.06c0.08,0.17,0.13,0.35,0.16,0.56c0.18,1.26-0.54,2.51-1.75,3.04
				c-0.86,0.38-1.88,0.42-2.86,0.47l-0.76,0.04l-0.56,0.04c-0.34,0.03-0.68,0.07-1.01,0.08c-0.22,0.02-0.44,0.03-0.65,0.03
				l-0.33,0.02c-0.12,0.02-0.25,0.03-0.37,0.03l-0.05-0.03L490.47,224.1z M533.71,334.41c8.83,0.13,17.64,0.28,26.47,0.33
				c8.77,0.06,17.54,0.08,26.3,0.08l6.59-0.01c6.48,0,13.07-0.12,19.44-0.23c4.14-0.08,8.28-0.15,12.42-0.2
				c10.94-0.11,21.89-0.13,32.07-0.14l5.46-0.01c1.82-0.01,3.64-0.02,5.46-0.02c3.19,0,6.38,0.03,9.57,0.1
				c0.01-0.65,0.05-1.34,0.1-2.02c0.31-5.22,0.36-10.59,0.38-15.64c0.01-1.45,0.03-2.92,0.06-4.39c0.06-3.39,0.13-6.9-0.05-10.31
				c-0.11-1.13-0.26-2.26-0.42-3.38c-0.23-1.72-0.47-3.49-0.58-5.25c-0.14-2.6-0.13-5.2-0.09-8.07c-0.66-1.42-1.36-2.83-2.07-4.24
				c-1.02-1.96-2.07-3.99-3.19-5.93c-0.47-0.62-0.97-1.23-1.47-1.84l-0.14-0.19l-0.01,0.02l-0.75-0.39c-1.11-0.6-2.24-1.19-3.3-1.86
				c-1.52-0.95-3.13-1.97-4.61-3.12c-3.93,0.74-8.04,0.9-12.02,1.06l-2.07,0.08c-3.81,0.16-7.62,0.34-11.43,0.57l-4.84,0.35
				c-3.87,0.29-7.73,0.58-11.61,0.8c-3.64,0.2-7.33,0.23-10.77,0.23h-2.02c-1.11,0-2.22,0-3.33,0.01h-0.49
				c-6.23,0-12.54-0.19-18.66-0.38c-4.21-0.12-8.42-0.24-12.63-0.31c-6.03-0.1-12.06-0.17-18.09-0.23
				c-14.54-0.16-29.58-0.32-44.36-0.91c-10.44-0.43-19.15-0.9-27.39-1.48c-5.67-0.42-11.79-1.05-19.26-1.97
				c-2.35,2.93-5.49,5.11-9.05,6.31c-0.29,1-0.57,2-0.83,3.02c-0.72,2.86-1.41,5.72-2.05,8.59c-1.31,6.76-2.2,12.92-2.71,18.82
				c-0.15,3.09-0.17,6.18-0.04,9.21c0.08,1.94-0.19,3.89-0.81,5.8l-0.01,0.33l-0.01,0.55c0.09-0.02,0.19-0.03,0.29-0.03
				c1.96-0.23,3.98-0.34,5.94-0.44c1.69-0.09,3.36-0.13,5.03-0.18l1.52-0.04c2.05-0.06,4.11-0.18,6.15-0.31
				c1.75-0.13,3.5-0.3,5.25-0.48c1.2-0.12,2.41-0.24,3.62-0.35c3.19-0.29,6.23-0.57,9.26-0.89c2.85-0.29,5.94-0.56,9.05-0.67
				c3.19-0.11,6.39-0.19,9.58-0.28l0.59-0.01c2.6-0.07,5.2-0.13,7.8-0.29c1.22-0.08,2.43-0.18,3.64-0.32
				c0.11-0.01,0.22-0.02,0.33-0.02c1.48,0,2.74,1.06,2.94,2.48c0.1,0.75-0.12,1.55-0.61,2.17c-0.48,0.6-1.14,0.98-1.87,1.06
				c-4.04,0.44-8.18,0.54-11.84,0.64l-0.77,0.02l-0.75,0.02c0.01,0.03,0.02,0.07,0.03,0.1c0.12,0.34,0.14,0.73,0.09,1.11
				c-0.15,1.12-0.93,2.01-2.1,2.38c-0.39,0.13-0.8,0.14-1.12,0.14l-0.46-0.01h-0.3c-0.68-0.02-1.35-0.03-2.02-0.03
				c-1.5-0.03-2.96-0.04-4.43-0.06c-0.36-0.01-0.71-0.01-1.07-0.01c-0.42,0.88-1.26,1.48-2.17,1.55c-0.56,0.05-1.12,0.07-1.67,0.08
				c0,0.01,0,0.03,0.01,0.03c0.04,0.13,0.07,0.3,0.07,0.49c0,1.37-1.01,2.55-2.4,2.83c0.1,1.48-1.04,2.88-2.49,3.01
				c-0.21,0.02-0.43,0.03-0.65,0.05c-0.12,1.06-0.8,1.95-1.86,2.36c0.72-0.02,1.44-0.03,2.15-0.05c4.04-0.1,8.46-0.15,13.96-0.18
				h1.66l1.68-0.01C510.53,334.04,522.32,334.23,533.71,334.41z M628.86,494.94h21.31h10.66c10.09,0.02,20.12,0.5,31.26,1.08
				c4.72,0.26,8.94,0.4,12.94,0.43c-0.11-0.25-0.21-0.51-0.31-0.76c-0.86-2.17-1.46-4.52-2.03-6.79c-0.33-1.3-0.66-2.6-1.03-3.87
				c-1.06-3.57-1.48-7.1-1.94-11.34c-0.25-2.33-0.45-4.67-0.66-7.01l-0.25-2.65c-0.08-0.98-0.2-1.96-0.31-2.95
				c-3.26-0.64-6.45-1.17-9.62-1.69c-3.64-0.6-7.94-1.28-12.2-1.84c-1.32-0.18-2.65-0.39-3.97-0.59c-2.5-0.38-5.08-0.77-7.63-0.98
				l0.35,0.01c-0.12-0.01-0.23-0.02-0.35-0.03c0.15,0.02,0.3,0.03,0.45,0.03l0.23,0.01c-1.1-0.1-2.19-0.26-3.28-0.48
				c-5.13-1.01-8.97-3.32-11.43-6.88c-3.24-4.7-4.49-9.35-3.83-14.2c0.32-2.32,1.08-4.55,2.24-6.62c-0.07-0.48-0.12-0.97-0.15-1.47
				l0.03,0.18c-0.02-0.23-0.03-0.45-0.05-0.69c-0.1-1.12-0.18-2.24-0.25-3.35c-0.07-1.07-0.07-2.16-0.08-3.24l-0.02-1.42
				c-0.02-1.35,0.06-2.73,0.14-4.07c0.08-1.64,0.19-3.29,0.29-4.93l0.06-0.97c0.03-0.47,0.05-0.95,0.08-1.42
				c-0.56-4.7-1.06-9.41-1.53-14.1c-0.41-4.01-0.69-8.08-0.97-12.03l-0.33-4.47c-0.09-1.19-0.16-2.38-0.22-3.59
				c-0.01,0-0.02,0-0.03,0c-6.45,0.04-12.92,0.08-19.38,0.13c-4.43,0.04-8.87,0.13-13.3,0.21c-6,0.12-12.21,0.23-18.33,0.24h-5.43
				c-9.4,0-18.81-0.02-28.21-0.06c-10.45-0.05-21.07-0.2-31.35-0.34c-10.67-0.15-21.72-0.31-32.58-0.34l-2.11-0.01
				c-8.9,0-18.09,0.19-27.31,0.59c0,0.01,0,0.03,0,0.03l0.05,0.9c0.04,1.3,0.08,2.6,0.14,3.9c0.44,5.52,1.03,11.46,1.89,18.72
				c0.25,2.21,0.42,4.65,0.54,7.44l1.96-0.03c2.2,0,4.4-0.03,6.61-0.07l4.53-0.07c2.72-0.05,5.43-0.1,8.14-0.12
				c0.76,0,1.47,0.29,2.02,0.82c0.36,0,0.73,0,1.1,0c0.35,0,0.69,0.07,1.02,0.19l2.48-0.08c6.24-0.19,12.59-0.34,18.84-0.4
				c1-0.01,2-0.01,3.01-0.01c2.53-0.01,5.16-0.01,7.74-0.15c0.21-0.04,0.43-0.07,0.66-0.07c1.31,0,2.48,0.86,2.82,2.1
				c0.2,0.73,0.09,1.53-0.3,2.21c-0.39,0.67-1,1.14-1.72,1.32c-0.61,0.17-1.25,0.18-1.87,0.21l-0.4,0.02
				c-0.72,0.03-1.44,0.06-2.16,0.08c-1.08,0.03-2.16,0.04-3.24,0.04h-0.94l-0.99-0.01c-2.22,0-4.44,0.03-6.67,0.07l-1.49,0.03
				l-1.49,0.03c0.02,0.03,0.03,0.07,0.04,0.1c0.13,0.33,0.18,0.7,0.14,1.06c0.01,0,0.02,0,0.03,0c0.14-0.05,0.3-0.07,0.48-0.07
				c0.14,0,0.28,0.01,0.42,0.03c0.62,0.09,1.23,0.2,1.83,0.35c1.36,0.33,2.3,1.74,2.1,3.15c-0.19,1.39-1.45,2.49-2.87,2.49
				c-0.86,0-1.74-0.05-2.6-0.09c-0.58-0.03-1.15-0.06-1.72-0.08c-1.13-0.04-2.22-0.07-3.3-0.09c0.05,0.03,0.1,0.07,0.14,0.1
				c0.2,0.13,0.38,0.3,0.53,0.49c0.58,0.76,0.75,1.73,0.44,2.65c-0.3,0.91-1.03,1.61-1.96,1.87c-0.56,0.16-1.19,0.18-1.74,0.18
				h-0.45c-0.22,0-0.44,0-0.64,0.01c-0.85,0.03-1.69,0.03-2.53,0.04l-0.84,0.02l-0.97,0.02l-0.97,0.02
				c0.01,0.02,0.02,0.03,0.03,0.04c0.1,0.1,0.17,0.24,0.23,0.39c0.3,0.69,0.3,1.49,0.01,2.21c-0.3,0.71-0.85,1.27-1.54,1.55
				c-0.57,0.23-1.15,0.28-1.85,0.28h-0.32c0.03,0.05,0.04,0.11,0.07,0.17c0.21,0.53,0.24,1.12,0.1,1.69
				c-0.3,1.22-1.51,2.15-2.76,2.15c-0.58-0.02-1.1-0.03-1.63-0.03c-2.94,0-5.92,0.19-8.81,0.38l-0.75,0.05l-0.69,0.06
				c-1.03,0.09-2.07,0.19-3.11,0.32c0.37-0.02,0.74-0.04,1.11-0.06c1.86-0.13,3.72-0.22,5.57-0.31l2.19-0.12
				c0.46-0.05,0.91-0.08,1.37-0.08c1.6,0.02,2.84,1.08,3.03,2.48c0.1,0.76-0.14,1.61-0.67,2.25c-0.47,0.58-1.13,0.93-1.82,0.99
				c-0.38,0.03-0.77,0.05-1.16,0.08c-1.96,0.21-3.87,0.59-5.71,0.95l-0.25,0.05c-0.02,0.7-0.34,1.39-0.86,1.91
				c0.15,0.58,0.1,1.17-0.13,1.69c0.57,0.6,0.86,1.48,0.77,2.32c-0.08,0.78-0.47,1.45-1.09,1.89c-0.71,0.49-1.42,0.84-2.32,1.11
				c-0.25,0.08-0.5,0.15-0.75,0.22c-0.12,0.5-0.38,0.96-0.74,1.3c-0.58,0.55-1.23,0.93-1.78,1.22c-1.4,9.19-9.57,16.14-19,16.14
				c-0.86,0-1.73-0.07-2.58-0.18c-1.89-0.27-3.83-0.49-5.93-0.67c-2.5-0.11-5.15-0.16-8.62-0.16c-1.36,0-2.71,0.01-4.07,0.02h-1.5
				h-1.5h-1.51c0.01,0.05,0.02,0.1,0.03,0.16c0.19,1.17,0.34,2.36,0.47,3.55c0.22,1.93,0.42,3.86,0.63,5.79
				c0.47,4.54,0.95,9.24,1.81,13.8c0.34,1.81,0.36,3.68,0.07,5.56c0.03,0,0.07-0.01,0.1-0.01c1.69-0.1,3.4-0.19,5.1-0.29
				c4.1-0.31,8.2-0.65,12.3-0.99c10.21-0.84,20.78-1.71,31.19-2.15c3.46-0.15,7.12-0.23,10.89-0.23c9.76,0,19.39,0.51,26.69,0.96
				h0.36c0.72,0,1.44,0.04,2.16,0.13c0.71,0.02,1.41,0.07,2.12,0.17l1.08,0.07l1.07,0.07c2.75,0.16,5.5,0.29,8.25,0.44
				c4.51,0.22,9.18,0.45,13.77,0.77c3.35,0.23,6.69,0.56,10.04,0.88c2.82,0.28,5.63,0.55,8.45,0.76
				c17.73,1.07,35.39,1.17,53.45,1.17l4.55-0.01C624.19,494.94,626.53,494.94,628.86,494.94z M718.27,766.17c0-0.39,0-0.78,0-1.17
				c-0.04-3.18-0.09-6.36-0.15-9.54c-0.06-3.7-0.13-7.39-0.13-11.08l0.01-4c0-9.28,0-18.56-0.09-27.83
				c-0.07-8.87-0.11-17.73-0.14-26.6c-0.05-11.74-0.09-23.89-0.25-35.83c-0.08-6.75-0.13-13.51-0.17-20.26
				c-0.05-7.72-0.1-15.45-0.21-23.18c-0.06-4.52-0.1-9.04-0.11-13.56c-6.14,4.12-12.28,8.23-18.42,12.34l-16.56,11.11
				c-1.96-0.39-3.97,0.75-4.51,2.7c-0.03,0.13-0.06,0.25-0.08,0.38l-0.02,0.01c0-0.01,0-0.02,0-0.03l-10.99,7.37l-35.86,24.02
				l-21.28,14.25l-9.22,6.18l-4.5,3.01c-2.39,1.6-4.71,2.37-7.11,2.37c-0.49,0-0.99-0.03-1.5-0.1c-2.96-0.39-5.72-1.98-7.55-4.33
				c-1.9-2.43-2.72-5.82-2.2-9.06c0.47-2.94,2-5.41,4.28-6.94l6.17-4.13l9.12-6.1l32.64-21.87l32.91-22.04l3.46-2.34l3.44-2.31
				c0.1,0.04,0.21,0.05,0.31,0.05c0.25,0,0.52-0.1,0.72-0.3c0.13-0.13,0.2-0.26,0.24-0.4c0.24,0.02,0.48-0.05,0.69-0.22
				c0.21-0.17,0.32-0.41,0.34-0.66l10.05-6.73c11.83-7.93,23.66-15.86,35.5-23.77l0.24-0.13h-0.03c-0.02-0.6-0.03-1.19-0.06-1.79
				c-0.99-1.69-2.02-3.36-3.09-5.01c-1.94-2.73-4.04-5.42-6.06-8.01c-2.5-3.21-5.09-6.53-7.4-9.96c-1.46-2.15-2.87-4.28-4.19-6.46
				c-2.92-0.12-5.87-0.28-8.81-0.44c-4-0.23-8.13-0.45-12.2-0.58c-6.86-0.22-13.83-0.24-19.74-0.24l-5.72,0.01l-5.72,0.01
				c-4.97,0-9.95,0.02-14.92,0.03c-1.64,0.01-3.28,0.01-4.92,0.02c0,0,0,0,0-0.01c-0.31-0.41-0.97-0.44-1.36-0.13
				c-0.05,0.04-0.09,0.09-0.13,0.14c-0.01,0-0.01,0-0.02,0c0-0.01,0.01-0.01,0.01-0.02c-2.85,0.01-5.69,0.01-8.54,0.01
				c-9.9,0-22.96-0.06-36.2-0.54c-8.59-0.32-15.62-0.7-22.12-1.22c-2.63-0.22-5.25-0.46-7.88-0.7l-0.25-0.03
				c-3.11-0.29-6.22-0.59-9.33-0.82l-2.36-0.13c-5.62-0.28-11.41-0.57-17.17-0.9c-0.13-0.01-0.26-0.02-0.39-0.02
				c-0.03-0.16-0.08-0.31-0.19-0.44c-0.25-0.3-0.65-0.44-1.03-0.34c-0.19,0.06-0.38,0.18-0.53,0.31c-0.08,0.08-0.17,0.16-0.25,0.24
				c-0.08,0.01-0.17,0.03-0.25,0.05c-0.03,0.01-0.06,0.02-0.08,0.03c-0.05,0-0.1-0.01-0.15-0.01l-0.42-0.03l-0.45-0.03
				c-7.9-0.36-15.94-0.61-23.71-0.85c-1.36-0.04-2.68-0.06-3.99-0.06c-5.89,0-11.87,0.38-17.67,0.75l-1.59,0.1
				c-4.98,0.34-9.95,0.76-14.92,1.19c-4.07,0.34-8.15,0.7-12.22,1c-2.5,0.18-5.01,0.34-7.51,0.48c-1.52,4.1-4.38,7.43-7.4,10.96
				l-1.42,1.67c-3.23,3.82-6.54,8.16-10.42,13.65c-1.96,3.08-3.66,5.88-5.18,8.55c9.12,5.91,18.26,11.82,27.4,17.74l17.6,11.39
				l4.11,2.66c0.08,0.27,0.3,0.49,0.56,0.6c0.15,0.09,0.32,0.15,0.49,0.15c0.03,0,0.06,0,0.1-0.01l0.01,0.01
				c-0.01,0-0.02,0-0.03,0.01l15.01,9.73l7.84,5.09c15.01,9.73,30.01,19.46,45.02,29.2l26.44,17.15l26.26,17.03l57.29,37.15
				c22.34,14.48,44.68,28.96,67.01,43.45l1.99,1.3c0.01,0,0.01,0,0.02,0c0.02,0.15,0.06,0.3,0.15,0.44c0.18,0.28,0.48,0.43,0.8,0.43
				c0.11,0,0.22-0.02,0.33-0.06L718.27,766.17z M629.51,819.76c5.43,0.07,10.93,0.47,16.44,0.88l0.79,0.05
				c12.6,0.76,25.1,0.92,35.83,1.01c0.01,0-0.02-0.15-0.01-0.15c0-0.01-0.03-0.16-0.03-0.17c-0.3-1.31-0.45-2.66-0.45-4.02
				c0-7.6,4.84-14.66,12.06-17.6c1.68-1.24,3.42-2.64,5.34-4.28c2.93-2.63,5.73-5.38,8.16-7.84c0.24-0.23,0.47-0.45,0.69-0.68
				c0,0,0,0-0.01,0c0.01-0.01,0.01-0.01,0.02-0.02l-2.75-1.78c-9.14-5.91-18.29-11.84-27.43-17.77l-6.87-4.45l-14.25-9.25
				c-9.57-6.2-19.14-12.4-28.71-18.61l-10.83-7.02l-24.41-15.83l-37.65-24.41l-12.76-8.28l-44.36-28.78l-21.8-14.14l-23.04-14.93
				l-3.1-1.99c-0.93-0.6-1.86-1.21-2.79-1.81c-0.03-0.24-0.15-0.48-0.36-0.64c-0.25-0.18-0.58-0.24-0.86-0.15
				c-10.04-6.51-20.09-13.02-30.13-19.54l-8.95-5.79l-3.65-2.36c-0.05,1-0.1,2-0.14,2.99c-0.32,9.32,0.02,18.72,0.39,27.6
				c0.4,9.58,0.64,19.99,0.73,31.84l0.03,6.51c0.03,8.28,0.08,16.84,0.45,25.25c0.42,9.52,0.77,19.85,1.09,31.54
				c0.2,7.72,0.58,15.56,0.96,23.14c0.25,5.33,0.51,10.66,0.72,15.99c0.13,3.54,0.25,7.07,0.38,10.61
				c0.18,4.96,0.36,9.93,0.56,14.89c1.52,2.36,3.01,4.75,4.49,7.15c1.87,3.01,3.74,6.03,5.69,9c1.79,2.57,3.24,4.52,4.69,6.31
				c0.85,0.87,1.71,1.72,2.62,2.54l1.3,1.11c3.9,2.43,6.87,6.12,8.35,10.38c3.29,0.25,6.59,0.52,9.89,0.77
				c2.35,0.13,4.72,0.25,7.07,0.36c0.19,0.12,0.37,0.23,0.56,0.35c0.14,0.08,0.31,0.13,0.47,0.13c0.31,0,0.61-0.15,0.8-0.4
				c0,0,0,0,0.01,0c-0.01,0.01-0.01,0.02-0.02,0.03c17.93,0.75,35.83,0.76,53.13,0.78h3.27h9.27h5.62c2.38,0,4.75,0,7.14-0.02
				c0.25,0,0.51,0,0.76,0v-0.01c0,0,0.01,0,0.02,0c-0.05-0.1-0.09-0.2-0.14-0.3l-0.44-0.94l-0.47-0.98
				c-0.73-1.49-1.28-3.1-1.82-4.66l-0.25-0.84c-0.14-0.38-0.27-0.75-0.41-1.13c-0.61-1.73-1.1-3.4-1.5-5.11l-0.08-0.32l-0.39-1.7
				c-0.08-0.36-0.19-0.71-0.29-1.06l-0.08-0.3c-0.08-0.33-0.17-0.65-0.24-0.99c-0.19-0.96-0.25-1.97-0.31-2.98l-0.06-0.95
				c-0.12-1.69-0.24-3.39-0.35-5.08l-0.02-0.28c-0.08-1.23-0.17-2.62-0.15-3.99c0.03-1.1,0.07-2.19,0.12-3.28l0.04-1.08l0.03-0.88
				c0.03-1.14,0.07-2.32,0.27-3.46l0.27-1.46c0.17-0.95,0.34-1.89,0.53-2.84c-0.08-0.86-0.09-1.67-0.03-2.47
				c0.22-2.97,1.48-5.67,2.7-8.28l0.29-0.6l0.12-0.25c0.17-0.76,0.36-1.53,0.59-2.29c0.4-1.32,0.96-2.67,1.72-4.15
				c0.29-0.56,0.59-1.11,0.91-1.64l0.08-0.23l0.08-0.22l0.14-0.42c0.36-1.07,0.7-2.1,1.13-3.14c0.5-1.19,1-2.38,1.52-3.56
				c0.51-1.18,1.02-2.36,1.55-3.52c0.42-0.93,1.03-1.8,1.72-2.78l0.44-0.61c0.27-0.39,0.54-0.78,0.82-1.17
				c0.14-0.26,0.29-0.52,0.44-0.77l0.25-0.43c0.44-0.74,0.89-1.48,1.36-2.2c1.13-1.74,2.46-3.48,4.07-5.33
				c0.91-1.05,1.85-2.06,2.79-3.08c0.35-0.44,0.69-0.87,1.05-1.3c0.51-0.82,1.03-1.65,1.59-2.45c1.47-2.09,3.34-4.02,6.06-6.25
				c0.19-0.27,0.4-0.54,0.64-0.75c0.34-0.32,0.71-0.54,1.12-0.67l0.19-0.15c0.59-0.99,1.54-1.56,2.59-1.56
				c0.63,0,1.25,0.22,1.78,0.62c0.68,0.19,1.26,0.64,1.65,1.26c0.23,0.1,0.42,0.24,0.61,0.43c0.23,0.03,0.45,0.16,0.6,0.34
				l0.17,0.17c0.27,0.26,0.53,0.52,0.79,0.79c0.63,0.64,1.23,1.28,1.81,1.96c0.28,0.2,0.44,0.34,0.53,0.51l0.11,0.21l0.11,0.23
				l0.45,0.6l0.2,0.22c0.62,0.14,0.98,0.38,1.15,0.75c0.05,0.13,0.08,0.23,0.08,0.35l0.35,0.54c0.13,0.12,0.22,0.24,0.31,0.39
				c0.19,0.25,0.36,0.52,0.61,0.9l0.33,0.53l0.37,0.5c0.1,0.14,0.2,0.29,0.3,0.44c0.08,0.13,0.16,0.27,0.24,0.42l0.58,0.79
				c0.32,0.43,0.66,0.85,1,1.27l0.75,0.91l0.2,0.24c0.39,0.47,0.78,0.94,1.14,1.42l0.27,0.35c0.25,0.32,0.49,0.64,0.73,0.97
				l0.51,0.72l0.54,0.77c0.3,0.43,0.58,0.86,0.85,1.3c0.17,0.27,0.29,0.46,0.35,0.67c0.03,0.08,0.04,0.14,0.05,0.23
				c0.34,0.42,0.58,0.8,0.8,1.19c0.15,0.25,0.3,0.52,0.44,0.8c0.6,0.76,1.19,1.53,1.73,2.35c0.69,1.03,1.36,2.18,2.15,3.72
				c1.02,1.99,1.86,4.22,2.55,6c0.27,0.72,0.55,1.44,0.83,2.15c0.46,1.14,0.93,2.28,1.41,3.41l0.19,0.48
				c0.53,1.26,1.06,2.52,1.54,3.79c0.48,1.25,0.8,2.57,1.17,4.06c0.3,1.27,0.54,2.5,0.73,3.87l0.06,0.44
				c0.16,1.24,0.33,2.48,0.51,3.72c0.08,0.57,0.17,1.12,0.26,1.69l0.08,0.47c0.1,0.58,0.19,1.16,0.29,1.74
				c0.37,2.43,0.75,5.05,0.95,7.73c0.2,2.77,0.3,5.27,0.31,7.66c0,1.38,0,2.58-0.16,3.77c-0.19,1.37-0.42,2.73-0.67,4.1
				c-0.44,2.39-0.89,4.76-1.4,7.14l-0.19,1.06c-0.27,1.54-0.55,3.14-1.12,4.66c-0.3,0.79-0.68,1.59-1.12,2.41
				c-0.1,0.39-0.18,0.65-0.28,0.87c-0.08,0.19-0.18,0.38-0.3,0.56l-0.14,0.4c-0.29,0.92-0.5,1.87-0.7,2.81
				c-0.08,0.33-0.14,0.65-0.2,1c-0.03,0.13-0.06,0.26-0.09,0.39c0.01,0,0.02,0,0.03,0c0,0.01,0,0.02,0,0.02
				c0.61,0.01,1.21,0.02,1.81,0.02c6.02,0.04,12.07,0.06,18.11,0.07c1.72,0,3.45,0,5.17-0.01h1.96l1.96-0.01
				C624.72,819.71,627.12,819.72,629.51,819.76z M745.08,805.44l-0.47,0.44c-1.53,1.22-3.06,2.45-4.57,3.71
				c-0.01,0-0.16,0.15-0.16,0.15c-0.13,0.04-0.25,0.08-0.38,0.12l-0.85,0.86c-3.91,3.92-7.96,7.97-12.13,11.75
				c0.17,0.01,0.34,0.02,0.5,0.03l0.78,0.02c5.39,0.32,10.84,0.76,16.11,1.18c3.71,0.3,7.41,0.6,11.12,0.86
				c7.98,0.47,15.88,0.8,23.29,1.09c5.17,0.2,9.53,1.88,12.98,5c0.03,1.16,0.03,2.3,0.03,3.45v8.01v0.42
				c-0.05,3.36-0.03,6.72-0.02,10.09c0.01,1.68,0.02,3.36,0.02,5.04c0,0.28,0.04,0.56,0.14,0.82c-0.31,0.33-0.64,0.62-0.97,0.9
				c0.06,2.14,0.15,4.29,0.25,6.45l0.16,3.86l0.15,4.03c0.14-0.23,0.28-0.48,0.41-0.71c0.47-0.84,0.93-1.68,1.4-2.52
				c1.58-3.19,3.12-6.39,4.67-9.59c2.18-4.51,4.44-9.18,6.74-13.73l-0.48,0.98c0.73-1.43,1.47-2.86,2.21-4.29
				c3.65-7.03,7.45-14.04,11.16-20.85c4.2-7.71,8.54-15.67,12.62-23.6c1.3-2.62,2.67-5.45,3.8-8.37c1.19-3.63,2.08-6.62,2.79-9.43
				c0.12-2.26,0.66-4.47,1.6-6.55l-0.33-2.04c-1.47-9.41-2.95-18.81-4.45-28.22c-2.52-15.91-5.02-31.81-7.51-47.72
				c-1.26-8.07-2.53-16.15-3.81-24.21c-1.27-8.05-2.54-16.1-3.8-24.15l-5.11-32.47l-2.34-14.82l-3.57-22.63l-3.57-22.63
				c-2.47-15.66-4.94-31.32-7.39-46.97l-4.14-26.32l-0.11-0.58l-0.13-0.71c-0.94-4.33-1.96-8.64-2.99-12.95
				c-1.35-5.69-2.74-11.58-3.9-17.42l-0.29-1.43c-0.9-4.52-1.83-9.2-2.56-13.83c-0.47-3.04-0.86-6.15-1.24-9.16
				c-0.25-1.97-0.49-3.94-0.77-5.91l-0.38-2.77c-1.32-9.4-2.68-19.12-3.79-28.72c-0.31-2.79-0.57-5.59-0.82-8.4
				c-0.19-2.1-0.38-4.2-0.6-6.3l-0.22-2.05l-0.22-2.05c-4.96-2.08-10.25-4.11-15.7-6.01c-3.6-1.22-7.18-2.45-10.77-3.69
				c-3.62-1.17-7.23-2.31-10.85-3.46c-4.95-1.56-9.88-3.13-14.8-4.76c0.01,0.08,0.02,0.14,0.03,0.22c0.08,0.6,0.12,1.21,0.12,1.83
				c0,10.14-8.69,19.03-18.59,19.03c-0.21,0-0.42-0.01-0.63-0.01c-5.28-0.2-10.53-0.54-16.35-0.93l-0.75-0.05l-0.77-0.04
				c0.01,0.08,0.02,0.16,0.02,0.24c0.25,2.93,0.47,5.89,0.7,8.84c1.03,13.21,2.61,26.31,4.68,38.94c0.02,0.12,0.03,0.24,0.05,0.37
				l1.31,0.23l1.1,0.17c3.9,0.62,7.78,1.28,11.65,1.95c3.7,0.63,7.4,1.27,11.1,1.85c6.13,0.98,11.51,4.76,14.39,10.11l0.16,0.3
				c0.86,1.68,1.46,3.45,1.79,5.27c2.77,3.3,4.34,7.45,4.43,11.67c0.14,1.63,0.3,3.27,0.46,4.9l0.11,1.1
				c1.13,1.56,1.85,3.35,2.06,5.14c0.25,2.1-0.08,4.24-0.97,6.19c0.04,0.34,0.08,0.7,0.12,1.05l0.07,0.53
				c-0.16,0.31-0.3,0.61-0.43,0.93c-0.13,4.11-0.17,7.88-0.11,11.53c0.09,0.9,0.19,1.79,0.28,2.69c0.08,0.73,0.16,1.41,0.25,2.09
				c-0.12,0.23-0.23,0.45-0.33,0.68c0.14,1.22,0.29,2.45,0.45,3.68c0.25,2.05,0.53,4.16,0.68,6.26c0.2,2.9,0.22,5.79,0.21,8.75
				c-0.02,2.92,0.13,5.88,0.27,8.73c0.1,2.15,0.2,4.3,0.25,6.46c0.03,1.52-0.27,3.01-0.91,4.44c1.04,1.29,2.08,2.61,3.11,3.94
				c3.18,4.14,6.12,8.54,9,13.46c1.47,2.5,2.63,5.23,3.67,8.59c1.01,3.28,1.1,6.84,1.19,10.29l0.02,0.49
				c0.06,2.47,0.02,4.97-0.02,7.4l-0.03,1.64l-0.08,5.64c-0.05,3.13-0.1,6.25-0.13,9.37c-0.08,7.38,0.03,14.87,0.14,22.14
				c0.06,3.69,0.11,7.38,0.14,11.07c0.03,4.44,0.07,8.88,0.09,13.31c0.04,5.7,0.08,11.4,0.14,17.1c0.14,12.63,0.19,25.25,0.25,37.89
				c0.03,8.26,0.07,16.53,0.14,24.78c0.04,6.49,0.04,12.99,0.05,19.49c0,4.18,0,8.36,0.02,12.54c0.01,3.15,0.08,6.31,0.14,9.48
				c0.17,7.77,0.35,15.8-0.39,23.62c-0.45,4.74-1.74,9.53-3.05,14.04c-0.29,1.02-0.6,2.03-0.94,3.03l-0.48,0.58l-0.47,0.57
				c-0.82,0.96-1.64,1.95-2.44,2.93v0.01l-0.37,0.45c-0.4,0.49-0.81,0.99-1.13,1.53l-0.62,0.78l-0.63,0.6l-0.62,0.59l0.03-0.05
				L745.08,805.44z M400.47,348.72c-2.17,0.67-4.33,1.39-6.49,2.1c-3.64,1.22-7.4,2.47-11.15,3.46c-7.32,1.96-14.64,3.92-21.94,5.95
				c-0.11,1.49-0.21,2.99-0.32,4.5c-0.13,1.85-0.26,3.7-0.42,5.54c-0.42,4.67-1.3,9.34-2.17,13.86l-0.22,1.13l-0.99,5.27
				c-1.74,9.22-3.53,18.76-5.94,28c-1.47,5.67-3.23,11.35-4.92,16.85c-1.14,3.7-2.28,7.4-3.35,11.13c-0.52,1.81-1.02,3.64-1.51,5.46
				l-3.98,18.8l-3.99,18.83l-0.8,3.82l-0.8,3.81c-0.44,2.43-0.87,4.87-1.3,7.31c-1.8,10.19-3.89,20.84-6.37,32.59l-0.32,1.63
				l-0.27,1.3c-0.1,0.78-0.27,1.58-0.48,2.36l-0.08,0.39l-0.47,2.21c-0.07,0.34-0.14,0.7-0.21,1.04c-0.59,2.78-1.2,5.55-1.81,8.33
				l-0.67,3.07c-0.91,4.23-1.86,8.6-2.96,12.87c-0.81,3.16-1.68,6.31-2.55,9.47l-1.19,5.63l-2.25,10.66
				c-2.61,12.34-5.22,24.69-7.85,37.04c-2.27,10.67-4.52,21.35-6.78,32.03l-3.38,15.96l-9.66,45.56
				c-2.91,13.77-5.82,27.54-8.75,41.3c-0.19,0.94-0.4,1.88-0.59,2.82c0.08,0,0.17,0.01,0.25,0.02c0.91,0.08,1.74,0.6,2.18,1.38
				l0.36,0.65c0.59,1.05,1.19,2.1,1.74,3.16l0.11,0.22c2.24,4.09,4.46,8.1,6.68,12.12c1.85,3.34,3.69,6.67,5.53,10.02l10.14,18.41
				c2.91,4.84,5.77,9.99,8.49,15.31l0.2,0.39l0.3,0.58c3.76,6.83,7.52,13.65,11.27,20.48c3.93,7.16,7.88,14.32,11.83,21.46
				c0.01-0.84,0.03-1.68,0.04-2.52c0.07-4.54,0.25-8.49,0.56-12.26c0.75-9.42,3.05-18.83,5.27-27.93l0.8-3.3
				c0.66-2.73,2.04-5.24,3.93-7.34c0.29-0.33,0.59-0.64,0.91-0.94c0.01-0.02,0.03-0.03,0.03-0.04c0.01-0.01,0.03-0.02,0.03-0.03
				c3.57-3.44,8.55-5.59,13.78-5.59c0.82,0,1.64,0.06,2.45,0.16c0.22,0.03,0.43,0.06,0.64,0.1c0.4-0.08,0.79-0.14,1.19-0.19
				l0.42-0.37l0.47,0.01l0.44,0.01l-0.06,0.01c0.63,0.03,1.25,0.09,1.86,0.18h-0.17c0.05,0.01,0.11,0.02,0.17,0.03
				c-0.06-0.01-0.12-0.02-0.18-0.03h-0.02c0.18,0.03,0.36,0.05,0.53,0.08c0.9,0.1,1.8,0.21,2.7,0.23c0.35,0,0.69-0.01,1.03-0.03
				c0.24,0.02,0.48,0.03,0.74,0.03c0.91,0,2.21-0.13,3.17-0.81l0.31,0.07c0.01,0.01,0.03,0.01,0.03,0.01
				c-0.01,0-0.02-0.01-0.03-0.01c0.02,0,0.03,0.01,0.05,0.01c-0.01,0-0.01,0-0.02,0c0.01,0,0.02,0,0.03,0.01c0.01,0,0.01,0,0.02,0
				c0.01,0,0.02,0,0.03,0.01l0.16-0.01l1.02,0.19l0.84,0.14c0.19,0.03,0.37,0.05,0.56,0.05c0.72,0,1.4-0.23,1.91-0.66
				c0.45,0.23,0.91,0.35,1.39,0.35c1.19-0.04,3.8-0.28,5.2-1.66c0.25-0.24,0.43-0.49,0.57-0.75c-0.18-0.19-0.35-0.42-0.52-0.65
				c-0.66-0.89-1.29-1.78-1.9-2.69c-0.32-0.48-0.62-0.96-0.91-1.46c-0.36-0.54-0.72-1.1-1.06-1.66l-0.13-0.2l-0.2-0.29
				c-0.67-0.42-1.35-0.85-2.03-1.26l-0.87-1.41l-0.31-0.52l-1.02-1.67l-1.02-1.68c-0.3-0.48-0.58-0.93-0.87-1.38
				c-0.69-1.06-1.33-2.07-1.88-3.27c-1.31-2.88-1.96-5.57-2.11-8.7c-0.09-2.17-0.18-4.34-0.26-6.51c-0.14-3.7-0.27-7.39-0.4-11.08
				c-0.21-5.97-0.42-11.94-0.7-17.91c-0.14-3.2-0.3-6.4-0.47-9.6c-0.34-6.66-0.69-13.54-0.89-20.32
				c-0.3-10.48-0.63-21.31-1.04-31.96c-0.06-1.53-0.13-3.07-0.19-4.6c-0.16-3.56-0.32-7.24-0.38-10.87
				c-0.04-3.37-0.04-6.75-0.04-10.12c0-2.02,0.01-4.04-0.01-6.06c-0.05-10.05-0.16-20.8-0.57-31.36l-0.18-4.64
				c-0.36-9.42-0.75-19.18-0.38-28.78c0.3-7.55,1.19-15.35,2.63-23.2c1.73-9.37,5.95-17.33,9.43-23.23
				c3.56-6.03,7.51-11.89,12.11-17.93c1.52-2,3.05-3.98,4.62-5.93l-0.01-0.36l-0.01-0.39c0-0.01,0.01-0.16,0.02-0.18
				c0-0.01,0.01-0.02,0.01-0.03c-0.04-0.65-0.08-1.29-0.13-1.93c-0.2-3.03-0.36-6.48-0.33-9.95c0-0.53,0.01-1.06,0.02-1.58
				c-0.1-3.03-0.12-6.17-0.06-9.63c-0.53-1.36-0.95-2.83-1.24-4.37c-0.91-4.75-1.41-9.66-1.89-14.4c-0.22-2.08-0.43-4.15-0.68-6.22
				c-0.35-3.02-0.76-6.03-1.19-9.04l-0.3-2.05c-0.41-2.76-0.84-5.61-0.84-8.42c0-7.96,5.15-15.15,12.81-17.9
				c1.21-1.88,2.71-3.5,4.45-4.85c3.38-2.59,7.42-3.9,12.02-3.9c0.02,0,0.03,0,0.05,0c0.11,0,0.22,0,0.33,0
				c-0.14-0.01-0.27-0.02-0.41-0.03c0.25,0.01,0.49,0.03,0.74,0.03c0.03,0,0.05,0,0.08,0h-0.01c0.64,0.03,1.29,0.05,1.93,0.07
				c3.71,0.1,7.44,0.11,11.07,0.13l3.73,0.02c-0.03-0.09-0.06-0.18-0.08-0.28c-0.32-1.01-0.53-2.07-0.62-3.13
				c-0.42-4.71-0.54-9.52-0.67-14.17c-0.06-2.21-0.12-4.41-0.21-6.62c-0.21-2.42-0.49-4.85-0.78-7.27
				c-0.28-2.41-0.56-4.83-0.78-7.24c-0.39-4.44-0.58-8.95-0.78-13.31l-0.03-0.5c-4.79-0.13-8.49-0.75-11.96-2
				c-4.03-1.44-7.48-4.45-10.24-8.95c-2.3-3.78-3.24-8.17-2.67-12.39c0.16-1.17,0.43-2.31,0.81-3.43
				C404.19,347.57,402.33,348.15,400.47,348.72z M441.33,913.29c6.16,0.13,12.42,0.72,18.47,1.29c3.17,0.3,6.34,0.6,9.5,0.83
				c13.55,0.81,27.34,0.97,40.67,1.12c7.48,0.08,14.03,0.31,20.06,0.69c4.33,0.29,8.72,0.71,12.97,1.12
				c2.83,0.28,5.66,0.54,8.49,0.78c20.63,1.19,41.64,1.19,61.95,1.19H618l10.89,0.01l29.17,0.01c8.64,0,17.27,0,25.91-0.02
				c8.66-0.01,17.46-0.34,25.98-0.65c4.99-0.19,9.98-0.38,14.97-0.5c5.27-0.13,10.49-0.14,16.3-0.14h0.91h0.91l3.68,0.01
				c2.46,0,4.94-0.01,7.4-0.03c0.28-0.36,0.59-0.72,0.92-1.06c-0.04-3.92-0.12-8.14-0.36-12.38c-0.15-1.95-0.33-3.91-0.51-5.86
				c-0.2-2.25-0.41-4.49-0.58-6.75c-0.33-4.55-0.53-9.19-0.72-13.67l-0.17-3.88c-0.19-4.32-0.36-8.64-0.51-12.97
				c-4.78-0.27-9.65-0.68-14.36-1.07c-3.18-0.27-6.38-0.53-9.57-0.76c-13.05-0.75-26.36-0.8-39.22-0.83l-6.7-0.02
				c-14.11-0.06-29.05-0.62-45.68-1.73c-5.88-0.28-11.66-0.33-16.05-0.33c-2.47,0-4.95,0.02-7.43,0.03
				c-2.52,0.01-5.06,0.03-7.59,0.03h-1.71c-10.59-0.03-21.79-0.23-34.25-0.6l-6.04-0.18c-9-0.28-18.3-0.56-27.47-0.6
				c-4.1-0.03-8.2-0.03-12.29-0.03l-3.08,0.01h-3.08h-4.62h-4.62h-4.62l-3.29-0.01c-12.53-0.02-25.48-0.04-38.21-0.47
				c-11.23-0.38-22.6-1.22-33.6-2.04c-3.21-0.24-6.42-0.48-9.63-0.7c-4.65-0.25-9.6-0.36-16.05-0.36c-2.79,0-5.58,0.02-8.38,0.04
				l-2.13,0.02c-6.45,0.04-12.9,0.09-19.35,0.14c-0.24,1.14-0.49,2.31-0.74,3.46c-0.42,2.38-0.75,4.85-1.01,7.77
				c-0.49,9.36-0.41,18.66-0.25,28.16c0.03,2.51,0.05,5.02,0.07,7.54c0.03,4.83,0.06,9.83,0.25,14.74c0.02,0,0.03,0,0.05,0
				c3.68-0.06,7.46-0.28,11.12-0.49c2.13-0.13,4.25-0.24,6.37-0.34c7.69-0.32,15.8-0.5,25.54-0.56c4.46-0.03,8.92-0.06,13.38-0.06
				C433.35,913.17,437.48,913.21,441.33,913.29z M635.56,1007.57c8.25,0.39,16.62,1.07,24.71,1.73c4.52,0.37,9.05,0.74,13.58,1.06
				c11.36,0.65,22.92,0.72,34.11,0.78l4.25,0.03l6,0.05c4.12,0.03,8.25,0.07,12.38,0.07c7.06,0,12.81-0.1,18.12-0.33
				c2.07-0.19,4.12-0.43,6.17-0.7l-0.02-0.23l0.02-0.53c0.11-1.99,0.22-3.97,0.33-5.97c0.35-6.16,0.7-12.53,0.75-18.82
				c0.07-8.35,0.11-18.07-0.16-27.7c-0.01,0-0.02,0-0.03,0c-2.62,0.05-5.26,0.06-7.9,0.06h-3.57h-1.46l-1.46-0.01
				c-2.94,0-5.88,0.01-8.82,0.05c-8.27,0.08-16.67,0.39-24.79,0.69l-7.72,0.28c-8.69,0.29-18.29,0.44-30.18,0.44
				c-6.04,0-12.09-0.03-18.12-0.07c-6.04-0.03-12.07-0.07-18.1-0.07h-7.08h-7.08c-14.07,0-25.87-0.02-37.73-0.11
				c-9.35-0.08-18.49-0.46-26.2-0.83c-6.12-0.28-12.31-0.88-18.3-1.44c-2.85-0.27-5.71-0.54-8.56-0.78
				c-9.66-0.56-19.49-0.68-29-0.79c-4.01-0.04-8.03-0.09-12.04-0.17c-10.7-0.22-21.51-1.07-31.96-1.9c-3.77-0.3-7.54-0.6-11.32-0.87
				c-4.52-0.18-9.35-0.25-15.64-0.25c-2.73,0-5.46,0.01-8.19,0.03l-1.07,0.01h-0.73c-7.68,0.03-15.63,0.07-23.44,0.35
				c-3.55,0.13-7.1,0.27-10.65,0.42c-4.73,0.2-9.47,0.39-14.2,0.54l-0.19,0.26l-0.2,0.27c-0.39,0.5-0.8,0.98-1.25,1.43
				c-0.28,8.6-0.28,17.38-0.29,25.87v0.75c0,3.17-0.03,6.34-0.06,9.51c-0.03,2.91-0.05,5.83-0.05,8.74
				c-0.2,0.25-0.35,0.53-0.44,0.84c-0.14,0.53,0.03,1.2,0.43,1.64l0.01,0.53c0.02,0,0.03-0.01,0.04-0.01l0.14-0.07l0.28-0.08
				c0,0.01,0.01,0.01,0.01,0.02c0.05,0.03,0.09,0.05,0.14,0.07c0.06,0.19,0.16,0.37,0.29,0.53c0.3,0.34,0.68,0.57,1.12,0.69
				c0.53,0.13,1.1,0.14,1.69,0.15c0.55,0.02,1.1,0.05,1.65,0.11c0.33,0.03,0.67,0.05,1,0.05c0.69,0,1.39-0.07,2.08-0.13
				c0.27-0.03,0.55-0.03,0.83-0.05c0.43-0.02,0.86-0.03,1.3-0.11c0.29-0.04,0.58-0.1,0.86-0.16c0.42-0.08,0.84-0.17,1.26-0.23
				l0.27-0.02l0.44,0.08l0.43,0.07c0.36,0.07,0.75,0.13,1.13,0.13c0.41,0,0.73-0.08,1.01-0.23c0.43,0.03,0.83,0.05,1.21,0.08
				c0.64,0.08,1.11,0.13,1.59,0.17c0.3,0.03,0.6,0.07,0.91,0.08c0.17,0.1,0.33,0.21,0.49,0.31l3.55-0.02
				c6.34-0.12,12.88-0.23,19.32-0.23h1.58l1.55,0.01c7.34,0.03,14.93,0.04,22.34,0.49c5.34,0.32,10.74,0.77,15.97,1.22
				c3.08,0.26,6.17,0.52,9.27,0.75c19.41,1.11,39.18,1.11,58.3,1.11h7.39c9.56,0.02,19.12,0.02,28.69,0.02h19.23l19.24-0.01
				c2.92,0,5.84-0.01,8.77-0.02c2.93-0.01,5.85-0.03,8.78-0.03C619.36,1007.14,627.4,1007.19,635.56,1007.57z M346.76,1104.41
				c0.33,0.05,0.69,0.1,1.03,0.13l0.27,0.04v-0.03c0.99,0,1.56-0.18,1.95-0.56c0.21,0.01,0.41,0.02,0.6,0.03h0.01
				c0.54,0,1.01-0.15,1.36-0.44l0.58,0.02c0.27-0.02,0.42-0.04,0.54-0.08c0.6,0.09,1.19,0.18,1.78,0.26l1.22,0.16
				c0.8,0.11,1.61,0.22,2.41,0.29l0.87,0.09l0.86,0.08h41.32h92.62h96.62h86.91h78.97h45.08c-0.47-0.9-0.95-1.79-1.42-2.68
				c-2.85-5.25-5.48-9.73-8.16-13.9c-2.42-3.4-5.02-6.76-7.53-10.01c-3.64-4.7-7.39-9.56-10.7-14.65
				c-2.31-3.56-5.33-8.26-8.18-13.15c-0.42-0.71-0.83-1.43-1.24-2.15l-0.26-0.47c-5.21,0.83-9.93,1.33-14.45,1.55
				c-5.09,0.23-10.54,0.34-17.69,0.34c-2.48,0-4.96-0.02-7.44-0.03l-5.61-0.02c-11.03-0.03-21.81-0.13-32.05-0.29
				c-10.61-0.19-21.36-1.09-31.76-1.96l-2.3-0.19c-2.79-0.23-5.61-0.45-8.4-0.65c-13.97-0.86-28.17-0.97-40.21-0.97
				c-3.92,0-7.83,0.02-11.75,0.03c-3.92,0.01-7.83,0.03-11.76,0.03h-14.99h-14.99c-12.48,0-24.94-0.01-37.41-0.03
				c-11.82-0.03-25.21-0.05-38.19-0.5c-10.16-0.35-20.44-1.17-30.38-1.95c-2.56-0.2-5.12-0.4-7.67-0.6
				c-6.5-0.37-13.48-0.54-21.96-0.54c-4.8,0-9.6,0.05-14.38,0.12l-10.52,0.11c-7.01,0.07-14.02,0.14-21.03,0.27
				c-1.26,0.28-2.61,0.45-4,0.53c-1.9,4.69-3.86,8.82-6,12.63c-1.71,3.08-3.62,6.11-5.45,9.05c-2.08,3.31-4.22,6.74-6.11,10.24
				c-2.68,5.56-5.19,11.51-7.89,18.75c-1.43,3.83-2.95,7.57-4.51,11.13c0.59,0,1.19,0,1.78,0l5.32-0.03
				c-0.01-0.01-0.01-0.01-0.01-0.02c-0.04-0.04-0.07-0.11-0.09-0.18c0.01,0,0.02,0,0.02,0v-0.01c0.03,0.01,0.06,0.01,0.08,0.02
				c0.21,0.02,0.42,0.03,0.63,0.06c0.72,0.08,1.28,0.11,1.85,0.13l0.38,0.02l0.4,0.01c0.08,0,0.14-0.01,0.22-0.01
				c0.17-0.03,0.26-0.05,0.36-0.08c0.01,0,0.08,0.01,0.14,0.03v-0.01L346.76,1104.41z M758.81,1142.46h-78.59h-87.88h-95.86h-93.11
				H318.3h-2.63h-1.03c-2.35,0-4.62-0.45-6.75-1.27c-3.27-1.24-6.12-3.35-8.27-6.04c-0.01-0.02-0.03-0.03-0.03-0.05
				c-0.02-0.02-0.03-0.03-0.03-0.03c-1.85-2.32-3.18-5.07-3.78-8.07c-0.55-0.39-0.94-0.94-1.08-1.54c-0.36-1.6-0.63-3.18-0.79-4.68
				c-0.05-0.32-0.08-0.65-0.12-0.96c-0.08-0.81-0.11-1.6-0.14-2.39l-0.01-0.26c-0.03-0.74-0.03-1.48-0.01-2.21
				c-0.08-0.43-0.07-0.87,0.03-1.32c0.03-0.53,0.07-1.01,0.1-1.48l0.05-0.75l0.03-0.64c0.03-0.34,0.06-0.68,0.09-1.01l0.02-0.55
				l0.02-0.45c-0.02-0.38-0.03-0.7-0.04-1.02c-0.03-1.06-0.06-2.2,0.06-3.34c0.04-0.34,0.11-0.69,0.19-1.03
				c0.09-0.37,0.3-0.75,0.61-1.17c0.25-1.48,0.71-2.94,1.4-4.34c2.3-4.69,4.7-9.75,6.71-15.02l1.36-3.61
				c1.71-4.55,3.48-9.27,5.48-13.8c2.87-6.51,5.84-12.21,9.06-17.4c0.75-1.22,1.52-2.44,2.3-3.65c2.07-3.26,4.2-6.63,6.07-10.09
				c1.3-2.79,2.61-5.88,4.02-9.42c-0.03-0.08-0.04-0.18-0.05-0.27c-0.97-7.43-1-15.05-1.02-21.78c-0.03-7.5-0.03-15.01-0.01-22.51
				c0.03-10.8,0.08-20.54,0.56-30.38v-0.01c-0.01-0.01-0.03-0.02-0.03-0.03c0.02-0.36,0.03-0.71,0.04-1.07
				c0-1.08,0.01-2.15,0.02-3.23c0.01-0.72,0.01-1.44,0.02-2.15c0.01-0.01,0.02-0.01,0.03-0.02c0-0.01,0-0.03,0-0.04
				c0.07-0.03,0.13-0.04,0.19-0.07c0.14-0.08,0.26-0.13,0.39-0.18c0.06-4.36,0.23-8.8,0.47-13.16c0-0.11,0.02-0.21,0.03-0.32
				l-7.89-13.56l-7.66-13.16l-12.15-20.86l-12.36-21.22l-9.42-16.17l-13.5-23.19l-9.1-15.63c-4.51-7.76-9.03-15.5-13.54-23.26
				l-0.25-0.41l-0.25-0.42l-0.09-0.2c-0.01-0.01-0.02-0.02-0.02-0.03l-0.02,0.01c-0.64-1.09-1.28-2.19-1.92-3.29
				c-0.03-0.08-0.08-0.15-0.12-0.22l-0.12-0.19c-0.5-0.84-1.19-1.53-2.05-2.05l8.06-37.92l11.25-52.71l0.19-0.9l1.71-7.99
				c3.27-15.32,6.53-30.63,9.79-45.96l5.08-23.8c2.38-11.14,4.77-22.29,7.13-33.44l0.29-1.34l1.63-7.73l2.98-13.93l2.94-13.78
				l0.96-4.48l0.95-4.48c0.7-3.28,1.41-6.56,2.1-9.84l3.83-17.93l4.1-19.23l0.99-4.65l1.87-8.75l2.25-10.61l1.03-4.83l1.03-4.84
				l4.88-22.82c2.45-11.46,4.9-22.93,7.33-34.4l0.12-0.53l0.11-0.54l0.75-3.5l0.75-3.5l0.24-1.11l0.24-1.11
				c1.66-7.75,3.31-15.5,4.95-23.25l0.14-0.65l0.76-3.6l0.62-2.87l0.59-2.81c0.28-1.33,0.57-2.67,0.86-4.01l0.47-2.2l0.31-1.47
				l0.31-1.48c0-0.01,0-0.01,0-0.02c-0.01-0.01-0.03-0.03-0.03-0.03c0.02-0.06,0.04-0.11,0.06-0.17c0.03-0.13,0.07-0.23,0.11-0.34
				l0.13-0.33l-0.02-0.01l0.2-0.55c0.14-0.41,0.3-0.81,0.42-1.22l0.18-0.59l0.18-0.6c0,0,0.05-0.22,0.06-0.22l0.09-0.33l0.1-0.33
				l0.1-0.39l0.09-0.32l2.57-1.84l2.57-1.84c0.37-0.86,1.07-1.47,1.96-1.73c0.23-0.07,0.45-0.11,0.65-0.12c0,0,0,0,0-0.01
				c0-0.02,0.01-0.04,0.01-0.07c0,0.02,0,0.03,0,0.05c0.04-0.16,0.07-0.34,0.09-0.51c0.01,0,0.02-0.01,0.03-0.01
				c0-0.01,0-0.02,0-0.03c0.87-0.24,1.74-0.49,2.61-0.72c2.79-0.8,5.57-1.55,8.36-2.31c8.23-2.22,16.74-4.53,24.99-7.18
				c8.68-2.8,17.41-5.41,25.85-7.92c0.97-0.29,1.93-0.57,2.89-0.84c0.03-7.4,0.79-15.14,2.24-22.98c1.02-5.48,1.92-10.08,3.04-14.71
				c0.59-2.51,1.3-4.98,1.85-6.85c0.09-2.67,0.78-5.37,1.98-7.81c0.86-1.95,1.92-3.74,3.34-5.65c1.49-2,3.39-3.66,5.64-4.9
				c-0.31-2.1-0.66-4.22-1.02-6.33c-0.29-0.99-0.48-1.98-0.58-3.04c-0.09-0.92-0.16-1.73-0.18-2.58v-0.36c0-0.29,0-0.59,0.02-0.88
				c0.03-3.14,0.02-6.28,0-9.42l-0.03-4.72c0-1.58,0.03-3.17,0.04-4.75c0.04-3.8,0.09-7.72-0.14-11.56l-0.05-0.83
				c-0.25-3.47-0.49-6.93-0.73-10.41l-0.27,0.03l-0.3,0.01c-2.06,0.03-4.12,0.04-6.17,0.04c-4.42,0-8.83-0.06-13.25-0.12l-2.14-0.03
				c-10.6-0.14-19.22-8.67-19.22-19.02c0-10.31,8.7-19.02,18.98-19.02h0.24c3.21,0.04,6.42,0.06,9.62,0.06
				c9.7,0,19.55-0.16,29.08-0.31c9.07-0.15,18.46-0.3,27.69-0.32h3.75c0.03-1.07,0.08-2.17,0.12-3.28
				c-0.03-0.55-0.03-1.11-0.04-1.66l-0.02-0.54c-0.25-1.24-0.38-2.5-0.38-3.73c0-1.58,0.21-3.16,0.62-4.7
				c-0.13-0.73-0.2-1.44-0.26-2.19c-0.31-5.68,0.12-11.19,0.86-17.71c0.18-1.51,0.33-3.03,0.49-4.55c0.36-3.61,0.74-7.35,1.44-10.95
				c0.91-4.8,1.96-9.06,3.18-13.05c0.15-1.2,0.38-2.39,0.64-3.61c0.42-2.05,0.85-4.11,1.34-6.15c0.42-1.74,1.11-3.4,1.77-5.01
				c0.29-0.7,0.58-1.4,0.85-2.1c1.05-3.14,2.25-5.98,3.68-8.64c0.41-0.95,0.82-1.89,1.26-2.82c0.44-0.95,0.91-1.87,1.4-2.79
				c1.02-3.43,2.61-6.56,4.42-9.99l1.19-2.3c1.54-2.98,3.13-6.05,5.02-8.89c1.39-2.1,2.83-4.25,4.33-6.31
				c1.53-2.09,3.33-4.04,5.07-5.93l0.47-0.52c4.31-4.7,9.66-8.74,15.87-12.01c1.9-1,3.83-1.83,5.73-2.47
				c0.41-0.22,0.82-0.42,1.24-0.62c2.75-1.36,5.7-2.09,8.55-2.79c0.93-0.23,1.85-0.46,2.77-0.7l0.39-0.14l-0.01-0.02l1.5-0.64
				c1.08-0.46,2.15-0.92,3.24-1.35c0.66-0.14,1.24-0.26,1.84-0.37c0.75-0.14,1.52-0.28,2.27-0.41l0.38-0.08
				c0.86,0.01,1.73,0.11,2.58,0.3c1.24-0.19,2.47-0.36,3.73-0.48c1.3-0.11,2.67-0.17,4.15-0.17c1.23,0,2.46,0.03,3.69,0.09
				c3.12,0.14,5.87,0.27,8.64,1.14c1.58,0.14,3.03,0.54,4.4,1.2c2.69,0.44,5.45,1.05,8.16,1.82c5.96,1.69,12.14,4.64,18.35,8.75
				c3.67,2.42,6.68,4.76,9.49,7.37c2.71,2.52,5.03,5.56,7.27,8.49l0.61,0.79c6.6,8.63,12.07,18.79,16.25,30.2
				c2.35,6.4,3.64,12.85,4.61,18.31l0.18,1.06c0.81,4.64,1.64,9.43,2.17,14.2c1.46,13.48,1.27,26.79,0.95,36.87
				c-0.19,5.96-0.67,12.09-1.46,18.75c-0.23,1.98-0.47,3.95-0.75,5.92c4.23,0.09,8.73,0.14,14.56,0.14c2.8,0,5.61-0.02,8.41-0.03
				c2.5-0.01,5-0.02,7.5-0.03c11.74-0.01,23.48-0.01,35.21-0.01c3.77,0,7.33,1.14,10.32,3.08c2.3,1.48,4.29,3.45,5.78,5.73
				c1.96,2.97,3.11,6.49,3.11,10.22c0,3.72-1.14,7.24-3.1,10.21c-1.51,2.3-3.51,4.27-5.83,5.75c-3,1.93-6.54,3.06-10.29,3.06
				c-5.2,0-10.41,0-15.61,0.01l-7.73,0.02c0.01,0.09,0.03,0.18,0.04,0.29c0.3,1.68,0.57,3.37,0.79,5.07
				c0.64,5.03,1.05,10.59,1.25,17c0.25,8,0.34,16.32,0.29,25.43c3.52,2.24,6.32,5.42,9.01,8.51l0.39,0.44
				c3.28,3.75,5.56,8.34,7.77,12.78l1.06,2.12c1.88,3.71,4.01,8.05,5.59,12.49c1.84,5.16,3.29,10.75,4.73,18.1
				c0.53,2.7,0.34,5.46-0.57,8.19c0.3,2.66,0.66,5.32,1.03,7.97c3.32,0.96,6.64,2.17,9.86,3.35c1.08,0.39,2.15,0.79,3.23,1.17
				c4.19,1.38,8.4,2.71,12.62,4.03c5.44,1.71,11.07,3.48,16.56,5.37c8.1,2.78,16.52,5.65,24.65,8.95c3.47,1.41,6.87,2.93,10.04,4.36
				l4.1,23.97l0.07,0.4l1.33,7.79l1.44,8.45l1.1,6.48c2.32,13.57,4.63,27.12,6.96,40.69l2.46,14.43
				c2.94,17.17,5.88,34.34,8.81,51.52c2.57,15.13,5.16,30.26,7.74,45.39l3.74,21.86l4.6,26.92c2.24,13.11,4.47,26.23,6.72,39.34
				c1.82,10.66,3.64,21.31,5.45,31.97c1.82,10.66,3.63,21.32,5.46,31.98c1.71,9.99,3.41,19.97,5.12,29.97
				c2.04,11.96,4.08,23.91,6.14,35.88l2.52,14.75l1.39,8.12l-1.58,3.73l-1.57,3.7l-10.68,25.18l-3.13,7.35l-7.46,15.89l-15.7,33.45
				l-10.6,22.56l-10.6,22.56c-0.03,0.07-0.07,0.14-0.09,0.21l-0.16,0.25l-0.92,1.53l-0.38,0.61c-1.52,2.45-2.96,4.8-4.37,7.15
				c-0.19,0.3-0.38,0.6-0.56,0.91l-0.23,0.13h0.03c-0.01,0.14-0.03,0.28-0.06,0.42l-0.15,0.25l0.02,0.01
				c-0.07,0.2-0.12,0.4-0.14,0.6l-0.19,0.55l-0.19,0.54c-0.09,0.19-0.19,0.39-0.29,0.57l-0.42,0.85l-0.42,0.84l-0.22,0.44
				l-0.66,1.33c-0.18,0.31-0.36,0.62-0.53,0.92l-0.33,0.57l-0.56,0.96c-0.74,1.25-1.49,2.54-1.95,3.92
				c-0.05,0.17-0.08,0.32-0.08,0.47c-0.39,0.69-0.65,1.26-0.83,1.81c-0.03,0.13-0.06,0.28-0.07,0.42c-0.5,0.91-0.97,1.81-1.43,2.72
				c-0.28,0.55-0.57,1.1-0.86,1.64l-1.68,3.36c0.58,5.94,0.66,11.77,0.72,18.22l0.03,3.49c0.07,7.17,0.14,14.58-0.11,21.86
				c-0.14,4.07-0.37,8.15-0.61,12.22c-0.11,2.04-0.23,4.08-0.33,6.11c-0.14,2.64-0.66,5.09-1.53,7.27c0.77,1.34,1.36,2.77,1.77,4.23
				c0.07,0.25,0.14,0.5,0.2,0.76c0.89,1.53,1.76,3.07,2.64,4.61l1.75,3.06c3,5.22,6.28,10.32,9.64,15.53
				c2.48,3.52,5.17,6.98,7.78,10.34c3.68,4.75,7.5,9.66,10.77,14.82c5.91,9.31,10.78,19.02,15.67,29
				c2.41,4.92,2.16,10.78-0.69,16.09c-0.15,0.32-0.24,0.5-0.34,0.68c-0.06,1.22-0.36,2.44-0.65,3.62l-0.1,0.43
				c-0.3,1.25-0.64,2.67-1.13,4.02c-0.43,1.22-0.97,2.39-1.56,3.68c-0.44,0.98-1.03,1.9-1.61,2.79l-0.29,0.44
				c-0.64,1.01-1.32,2.04-2.52,2.48c-3.52,5.63-9.79,9.13-16.34,9.13H758.81z"/>
			<path class="st2" d="M646.74,820.69l-0.79-0.05c-5.51-0.41-11.01-0.81-16.44-0.88c-2.39-0.04-4.79-0.05-7.17-0.05l-1.96,0.01
				h-1.96c-1.72,0.01-3.45,0.01-5.17,0.01c-6.04-0.01-12.09-0.03-18.11-0.07c-0.6,0-1.2-0.01-1.81-0.02
				c0.07-0.49,0.17-0.95,0.27-1.41c0.2-0.94,0.42-1.89,0.7-2.81l0.14-0.4c0.12-0.18,0.21-0.37,0.3-0.56
				c0.1-0.23,0.18-0.49,0.28-0.87c0.44-0.81,0.81-1.62,1.12-2.41c0.57-1.52,0.85-3.12,1.12-4.66l0.19-1.06
				c0.51-2.38,0.96-4.75,1.4-7.14c0.25-1.37,0.48-2.72,0.67-4.1c0.16-1.19,0.16-2.39,0.16-3.77c-0.01-2.38-0.11-4.89-0.31-7.66
				c-0.2-2.68-0.58-5.3-0.95-7.73c-0.09-0.59-0.19-1.17-0.29-1.74l-0.08-0.47c-0.09-0.56-0.19-1.11-0.26-1.69
				c-0.18-1.24-0.35-2.48-0.51-3.72l-0.06-0.44c-0.19-1.37-0.42-2.6-0.73-3.87c-0.36-1.48-0.69-2.81-1.17-4.06
				c-0.48-1.27-1.01-2.53-1.54-3.79l-0.19-0.48c-0.47-1.13-0.95-2.27-1.41-3.41c-0.28-0.71-0.56-1.43-0.83-2.15
				c-0.69-1.79-1.53-4.02-2.55-6c-0.8-1.54-1.47-2.69-2.15-3.72c-0.54-0.81-1.13-1.58-1.73-2.35c-0.14-0.28-0.29-0.55-0.44-0.8
				c-0.23-0.39-0.47-0.77-0.8-1.19c-0.01-0.09-0.03-0.15-0.05-0.23c-0.06-0.21-0.18-0.4-0.35-0.67c-0.27-0.44-0.55-0.87-0.85-1.3
				l-0.54-0.77l-0.51-0.72c-0.24-0.34-0.48-0.65-0.73-0.97l-0.27-0.35c-0.36-0.48-0.75-0.95-1.14-1.42l-0.2-0.24l-0.75-0.91
				c-0.34-0.43-0.68-0.85-1-1.27l-0.58-0.79c-0.08-0.15-0.15-0.29-0.24-0.42c-0.1-0.15-0.2-0.3-0.3-0.44l-0.37-0.5l-0.33-0.53
				c-0.25-0.38-0.41-0.65-0.61-0.9c-0.09-0.15-0.19-0.28-0.31-0.39l-0.35-0.54c-0.01-0.13-0.03-0.23-0.08-0.35
				c-0.17-0.37-0.53-0.6-1.15-0.75l-0.2-0.22l-0.45-0.6l-0.11-0.23l-0.11-0.21c-0.08-0.18-0.25-0.31-0.53-0.51
				c-0.58-0.68-1.19-1.32-1.81-1.96c-0.25-0.27-0.52-0.53-0.79-0.79l-0.17-0.17c-0.15-0.18-0.37-0.31-0.6-0.34
				c-0.19-0.18-0.38-0.33-0.61-0.43c-0.39-0.62-0.97-1.06-1.65-1.26c-0.53-0.4-1.15-0.62-1.78-0.62c-1.05,0-2,0.57-2.59,1.56
				l-0.19,0.15c-0.41,0.13-0.78,0.35-1.12,0.67c-0.24,0.22-0.44,0.49-0.64,0.75c-2.72,2.23-4.58,4.16-6.06,6.25
				c-0.56,0.8-1.08,1.63-1.59,2.45c-0.36,0.43-0.7,0.86-1.05,1.3c-0.95,1.01-1.89,2.03-2.79,3.08c-1.6,1.85-2.93,3.6-4.07,5.33
				c-0.47,0.71-0.92,1.46-1.36,2.2l-0.25,0.43c-0.15,0.25-0.3,0.51-0.44,0.77c-0.28,0.39-0.55,0.77-0.82,1.17l-0.44,0.61
				c-0.69,0.97-1.3,1.84-1.72,2.78c-0.53,1.17-1.04,2.34-1.55,3.52c-0.52,1.18-1.02,2.37-1.52,3.56c-0.43,1.03-0.78,2.07-1.13,3.14
				l-0.14,0.42l-0.08,0.22l-0.08,0.23c-0.32,0.54-0.63,1.08-0.91,1.64c-0.76,1.48-1.32,2.83-1.72,4.15
				c-0.23,0.76-0.42,1.53-0.59,2.29l-0.12,0.25l-0.29,0.6c-1.22,2.62-2.48,5.32-2.7,8.28c-0.06,0.8-0.04,1.62,0.03,2.47
				c-0.19,0.95-0.36,1.89-0.53,2.84l-0.27,1.46c-0.2,1.14-0.24,2.32-0.27,3.46l-0.03,0.88l-0.04,1.08
				c-0.05,1.09-0.09,2.18-0.12,3.28c-0.02,1.37,0.07,2.76,0.15,3.99l0.02,0.28c0.11,1.69,0.23,3.39,0.35,5.08l0.06,0.95
				c0.06,1.01,0.12,2.03,0.31,2.98c0.07,0.34,0.15,0.66,0.24,0.99l0.08,0.3c0.1,0.35,0.2,0.7,0.29,1.06l0.39,1.7l0.08,0.32
				c0.4,1.71,0.89,3.39,1.5,5.11c0.14,0.38,0.26,0.75,0.41,1.13l0.25,0.84c0.54,1.56,1.09,3.17,1.82,4.66l0.47,0.98l0.44,0.94
				c0.04,0.1,0.08,0.2,0.14,0.3c-2.65,0.03-5.28,0.03-7.92,0.03h-5.62h-9.27h-3.27c-17.3-0.02-35.2-0.03-53.13-0.78
				c0.01-0.03,0.03-0.05,0.03-0.08c-0.18,0.29-0.51,0.45-0.83,0.45c-0.16,0-0.33-0.04-0.47-0.13c-0.35-0.21-0.69-0.43-1-0.69
				c-0.11-0.09-0.23-0.18-0.35-0.27c-0.17-0.13-0.34-0.29-0.52-0.41c0.03,0.03,0.07,0.05,0.1,0.08c-0.5-0.34-0.98-0.69-1.4-1.11
				c-0.23-0.23-0.44-0.48-0.64-0.72c-0.04-0.06-0.09-0.11-0.14-0.17c-0.53-0.3-1.01-0.7-1.48-1.12c-1.15-1.01-2.25-2.1-3.27-3.23
				c-0.65-0.72-1.3-1.46-1.89-2.25c-0.44-0.6-0.86-1.23-1.35-1.79c-0.94-1.09-1.9-2.18-2.72-3.35c-0.87-1.24-1.93-2.31-2.68-3.64
				c-0.42-0.74-0.86-1.45-1.27-2.2c-0.47-0.93-0.91-1.89-1.35-2.84c-0.52-1.12-1.02-2.34-1.02-3.58c0-0.29,0.03-0.57,0.1-0.85
				c-0.01-0.02-0.02-0.03-0.03-0.05c-0.03-0.06-0.04-0.13-0.05-0.19c-0.01-0.01-0.01-0.02-0.02-0.03v-0.01
				c-0.21-0.52-0.49-1.01-0.62-1.57c-0.01-0.06-0.03-0.11-0.04-0.17c0.33-0.51,0.42-1.18,0.18-1.76c-0.1-0.25-0.26-0.47-0.45-0.65
				c-0.02-0.32-0.02-0.64-0.02-0.96c0-0.47,0.36-0.88,0.83-0.95c0.2-0.03,0.41,0.02,0.58,0.12c9.6-6.46,19.2-12.9,28.81-19.33
				l18.9-12.65l18.34-12.29l35.93-24.06l0.25-0.17c0.41-0.27,0.68-0.44,0.96-0.64c2.55-1.88,4.08-4.52,4.49-7.55
				c0.42-3.06-0.4-6.17-2.24-8.53c-2.17-2.78-5.48-4.38-9.09-4.38c-2.15,0-4.24,0.58-6.07,1.67l0.14-0.1l-0.14,0.08l0.01,0.02
				c-0.41,0.24-0.69,0.44-0.97,0.65l-0.19,0.13c-9.12,6.09-18.15,12.14-27.17,18.19l-19.49,13.05
				c-15.95,10.67-31.9,21.36-47.84,32.05c0.02-0.06,0.03-0.11,0.04-0.17c-0.06,0.18-0.17,0.34-0.32,0.46
				c-0.17,0.14-0.37,0.2-0.58,0.2c-0.29,0-0.58-0.13-0.77-0.37c-0.02-0.03-0.04-0.06-0.07-0.08c-0.15-0.08-0.29-0.2-0.4-0.36
				c-0.17-0.25-0.35-0.5-0.52-0.75c-0.06-0.08-0.13-0.16-0.19-0.24c-0.27-0.38-0.52-0.78-0.69-1.21c-0.15-0.39-0.27-0.78-0.41-1.17
				c-0.21-0.64-0.42-1.28-0.64-1.92c-0.08-0.23-0.16-0.48-0.23-0.71c-0.14-0.15-0.25-0.32-0.37-0.49c-0.61-0.91-1.08-1.89-1.56-2.87
				c-0.54-1.12-1.11-2.24-1.56-3.4c-0.49-1.28-0.85-2.61-1.26-3.92c-0.48-1.48-0.78-3.03-1.27-4.51c-0.39-1.08-0.68-2.19-0.91-3.31
				c-0.27-1.32-0.38-2.64-0.57-3.97c-0.42-2.93-0.54-5.89-0.72-8.84c-0.08-1.13-0.18-2.26-0.33-3.39c-0.08-0.63-0.19-1.26-0.27-1.9
				c-0.09-0.83-0.22-1.65-0.36-2.48c-0.16-0.96-0.15-1.94-0.15-2.9c-0.02-2.32-0.01-4.64,0.02-6.97c0.02-1.82,0.17-3.61,0.3-5.42
				c0.19-3.55,0.86-7.03,1.11-10.56c-0.01,0.18-0.03,0.34-0.03,0.52c0.15-2.45,0.53-4.86,0.76-7.29c0.27-2.81,1.01-5.57,1.69-8.3
				c0.88-3.59,1.76-7.18,2.78-10.74c1.03-3.62,2.48-7.07,4.18-10.44c0.71-1.42,1.47-2.82,2.21-4.23c1.6-3.31,2.91-6.77,4.84-9.9
				c0.97-1.57,2.02-3.09,3.07-4.6c0.8-1.14,1.68-2.22,2.47-3.36c1.13-1.72,2.05-3.54,3.07-5.32c0.41-0.72,0.9-1.42,1.41-2.08
				c0.29-0.37,0.58-0.73,0.9-1.05c0.11-0.26,0.23-0.51,0.36-0.76c0.12-0.23,0.25-0.44,0.39-0.66c0.13-0.2,0.28-0.42,0.48-0.56
				c0.12-0.15,0.25-0.29,0.4-0.4c0.04-0.03,0.08-0.06,0.14-0.08c0.05-0.09,0.1-0.18,0.16-0.26c0.11-0.16,0.25-0.29,0.4-0.4
				c0.01-0.01,0.03-0.02,0.03-0.03c0.01-0.01,0.01-0.01,0.02-0.02c-0.01,0.01-0.01,0.01-0.02,0.02c0.03-0.02,0.04-0.03,0.06-0.05
				c-0.01,0.01-0.03,0.03-0.04,0.03c0.26-0.23,0.56-0.48,0.81-0.73c-0.01,0-0.01,0.01-0.02,0.01l0.01-0.01c0.01,0,0.01,0,0.01-0.01
				c0,0.01,0,0.01,0,0.01c0.01-0.01,0.02-0.01,0.02-0.02l-0.01,0.01h-0.01c0.01,0,0.02-0.01,0.02-0.02c0.01,0,0.01,0,0.02-0.01
				c0.01-0.01,0.03-0.03,0.04-0.04c-0.01,0.01-0.01,0.01-0.01,0.02c0.01-0.02,0.02-0.03,0.03-0.03c0,0.01-0.01,0.02-0.02,0.03
				c0.04-0.03,0.07-0.06,0.14-0.1c0.1-0.07,0.21-0.1,0.33-0.12c0.33-0.32,0.87-0.34,1.24-0.06c0.22,0.17,0.34,0.41,0.36,0.66
				l5.89,3.77l23.04,14.93l21.8,14.14l44.36,28.78l12.76,8.28l37.65,24.41l24.41,15.83l10.83,7.02
				c9.57,6.21,19.14,12.42,28.71,18.61l14.25,9.25l6.87,4.45c9.15,5.93,18.29,11.86,27.43,17.77l2.75,1.78
				c-2.57,2.62-5.64,5.65-8.85,8.54c-1.92,1.64-3.67,3.04-5.34,4.28c-7.22,2.93-12.06,10-12.06,17.6c0,1.37,0.14,2.72,0.45,4.02
				c0,0.01,0.03,0.16,0.03,0.17c-0.01,0,0.02,0.15,0.01,0.15C671.84,821.62,659.34,821.46,646.74,820.69z"/>
			<path class="st2" d="M468.35,588.42c-0.37-0.12-0.72-0.29-1.04-0.52c-0.03,0.04-0.06,0.09-0.08,0.13
				C467.61,588.19,467.98,588.32,468.35,588.42z M706.62,758.97c-0.09-0.13-0.14-0.28-0.15-0.44c-0.01,0-0.01,0-0.02,0l-1.99-1.3
				c-22.33-14.49-44.67-28.97-67.01-43.45l-57.29-37.15l-26.26-17.03l-26.44-17.15c-15.01-9.73-30.01-19.46-45.02-29.2l-7.84-5.09
				l-15.01-9.73c0.03-0.01,0.06-0.02,0.09-0.03c-0.01,0-0.01,0-0.02,0c-0.05,0.01-0.11,0.02-0.16,0.02c-0.17,0-0.34-0.06-0.49-0.15
				c-0.38-0.16-0.66-0.55-0.58-1c0.03-0.25,0.16-0.44,0.31-0.64v-0.01c0.02-0.02,0.03-0.03,0.04-0.05c0.02-0.03,0.03-0.07,0.05-0.09
				c0.06-0.18,0.14-0.34,0.24-0.49c0.09-0.17,0.2-0.32,0.37-0.44c0.09-0.22,0.22-0.43,0.41-0.58c0.02-0.03,0.03-0.05,0.04-0.08
				c0.1-0.23,0.19-0.48,0.29-0.72c0.22-0.57,0.47-1.14,0.78-1.68c0.06-0.1,0.12-0.2,0.19-0.29c0.24-0.45,0.49-0.88,0.8-1.29
				c0.11-0.15,0.22-0.29,0.35-0.44c0.04-0.08,0.09-0.15,0.14-0.23c0.01-0.08,0.03-0.18,0.07-0.27c0.07-0.18,0.18-0.35,0.28-0.52
				c0.01-0.02,0.02-0.03,0.03-0.06c0.2-0.44,0.45-0.86,0.69-1.28c0.37-0.65,0.75-1.28,1.11-1.93c0.19-0.35,0.39-0.71,0.58-1.06
				c0.02-0.03,0.03-0.05,0.04-0.07c0,0,0,0-0.01,0c0.17-0.33,0.33-0.65,0.5-0.97c0.12-0.63,0.4-1.21,0.8-1.69
				c1.03-2.69,2.44-5.23,3.96-7.68c1.9-3.05,4.23-5.77,6.3-8.69c0.86-1.22,1.73-2.42,2.62-3.62c0.85-1.34,1.78-2.63,2.74-3.88
				c0.08-0.11,0.16-0.21,0.25-0.32c0.08-0.13,0.14-0.27,0.23-0.39c0.42-0.7,0.97-1.3,1.52-1.9c1.18-1.27,2.42-2.5,3.64-3.73
				c2.57-2.62,5.16-5.22,7.65-7.92c2.3-2.52,4.8-4.96,7.42-7.17c0.98-0.95,2.04-1.8,3.11-2.64c2.03-1.59,4.35-2.79,6.54-4.2
				c-0.01,0.01-0.02,0.01-0.02,0.02c0.04-0.03,0.08-0.06,0.13-0.08c0.03-0.02,0.06-0.04,0.09-0.06c0.01-0.01,0.03-0.02,0.03-0.03
				c0.01,0,0.01,0,0.01,0c0.05-0.03,0.09-0.06,0.14-0.09c0.75-0.51,1.56-0.81,2.45-0.8c0.09-0.14,0.23-0.27,0.38-0.37
				c0.08-0.06,0.18-0.09,0.28-0.13c0.15-0.11,0.34-0.18,0.51-0.23c0.08-0.03,0.17-0.04,0.25-0.05c0.08-0.08,0.17-0.16,0.25-0.24
				c0.15-0.13,0.34-0.25,0.53-0.31c0.38-0.1,0.79,0.03,1.03,0.34c0.11,0.14,0.16,0.29,0.18,0.45c5.89,0.34,11.81,0.64,17.56,0.92
				l2.36,0.13c3.11,0.23,6.22,0.53,9.33,0.82l0.25,0.03c2.63,0.24,5.25,0.49,7.88,0.7c6.5,0.52,13.53,0.91,22.12,1.22
				c13.24,0.49,26.3,0.54,36.2,0.54c2.85,0,5.69,0,8.54-0.01c-0.02,0.04-0.04,0.07-0.06,0.11c0.05-0.08,0.12-0.16,0.2-0.23
				c0.39-0.32,1.04-0.29,1.36,0.13c0.01,0.02,0.02,0.03,0.03,0.04c0.24,0.08,0.44,0.26,0.57,0.49l0.01,0.01c0,0,0,0,0,0.01
				c0.01,0.02,0.03,0.04,0.03,0.06c0,0,0,0-0.01-0.01c0.01,0.02,0.02,0.03,0.03,0.04c1.19,0.29,2.18,1.15,2.64,2.26
				c0.32,0.23,0.64,0.48,0.94,0.75c0.82,0.71,1.52,1.52,2.23,2.34c0.8,0.93,1.54,1.9,2.32,2.84c1.56,1.9,3.07,3.83,4.7,5.67
				c-0.11-0.12-0.22-0.24-0.33-0.36c1.24,1.37,2.43,2.78,3.61,4.19c-0.01-0.01-0.01-0.01-0.02-0.02c0.01,0.01,0.02,0.03,0.03,0.04
				c0.03,0.04,0.07,0.08,0.1,0.12c-0.01-0.01-0.02-0.02-0.03-0.03c0.01,0.02,0.03,0.03,0.04,0.05c0,0-0.01-0.01-0.01-0.01
				c0,0,0.01,0.01,0.01,0.01c0.04,0.05,0.08,0.09,0.12,0.14c0,0,0.01,0.01,0.01,0.01c0,0,0,0,0,0c0.02,0.02,0.02,0.02,0.03,0.04
				c0,0,0,0,0,0c0,0,0,0,0,0c0.06,0.06,0.11,0.12,0.16,0.18c0.91,1.01,1.88,1.97,2.76,2.99c0.96,1.1,1.89,2.22,2.79,3.35
				c1.82,2.3,3.42,4.74,5.06,7.17c-0.09-0.13-0.19-0.27-0.28-0.4c1.04,1.51,2.06,3.04,3.09,4.57c0,0,0-0.01-0.01-0.01
				c0.01,0.01,0.02,0.02,0.02,0.03c0.14,0.22,0.3,0.43,0.47,0.64c1.47,1.53,3.07,2.92,4.48,4.53c0.47,0.52,0.92,1.06,1.36,1.61
				c0.57,0.7,0.94,1.54,1.36,2.33c0.41,0.74,0.8,1.46,1.13,2.23c0.41,0.95,0.77,1.9,1.17,2.85c0.25,0.59,0.51,1.17,0.74,1.76
				c0.18,0.23,0.33,0.47,0.47,0.73c0.25,0.46,0.47,0.94,0.69,1.42c0.06,0.08,0.11,0.18,0.15,0.28c0.01,0.04,0.03,0.08,0.03,0.12
				c0-0.01,0-0.01,0-0.02c0,0.01,0,0.02,0.01,0.03v0.01c0,0.01,0.01,0.02,0.01,0.02v-0.01c0.14,0.27,0.26,0.54,0.39,0.82
				c0.03,0.03,0.05,0.06,0.08,0.09c0.13,0.2,0.24,0.43,0.33,0.65c0.27,0.44,0.53,0.9,0.78,1.36c0.19,0.36,0.35,0.72,0.53,1.08
				c0.04,0.09,0.07,0.19,0.08,0.29c0.03,0.09,0.08,0.18,0.12,0.28c0.02,0.05,0.04,0.1,0.06,0.15c0,0.01,0.01,0.02,0.01,0.02
				c0.01,0.02,0.01,0.03,0.02,0.05c0.22,0.14,0.39,0.38,0.45,0.65c0.01,0.04,0.02,0.08,0.03,0.12c0.01,0.07,0.03,0.15,0.06,0.22
				c0.02,0.05,0.04,0.09,0.07,0.13c0.01,0.02,0.02,0.03,0.03,0.04c-0.01-0.01-0.02-0.02-0.02-0.03c0,0.01,0,0.02,0.01,0.02
				c0.02,0.03,0.03,0.05,0.04,0.08c0.14,0.03,0.27,0.08,0.38,0.17c0.14,0.03,0.27,0.1,0.39,0.21c0.25,0.23,0.35,0.57,0.3,0.89
				c0.06,0.08,0.11,0.16,0.15,0.25c0.17,0.39,0.08,0.85-0.25,1.13c-0.2,0.17-0.45,0.23-0.69,0.22c-0.03,0.14-0.11,0.28-0.24,0.4
				c-0.2,0.2-0.47,0.3-0.72,0.3c-0.11,0-0.22-0.02-0.33-0.06l-6.88,4.65l-32.91,22.04l-32.64,21.87l-9.12,6.1l-6.17,4.13
				c-2.28,1.53-3.8,4-4.28,6.94c-0.52,3.24,0.3,6.62,2.2,9.06c1.83,2.35,4.58,3.93,7.55,4.33c0.51,0.07,1.01,0.1,1.5,0.1
				c2.4,0,4.72-0.77,7.11-2.37l4.5-3.01l9.22-6.18l21.28-14.25l35.86-24.02l10.99-7.37c-0.02,0.14-0.03,0.28-0.03,0.42
				c0.01-0.26,0.05-0.52,0.13-0.78c0.56-2.02,2.69-3.18,4.72-2.66c1.47,0.38,2.3,1.6,3.06,2.81c0.58,0.92,1.09,1.89,1.63,2.83
				c1,1.74,2.2,3.38,3.32,5.03c-0.09-0.13-0.19-0.27-0.28-0.4c1.32,1.93,2.3,4.04,3.45,6.07c1.09,1.93,2.19,3.87,3.27,5.8
				c1.22,2.17,2.19,4.47,3.28,6.71c1.06,2.17,2.06,4.37,3.13,6.53c0.46,0.89,0.92,1.76,1.29,2.69c0.47,1.2,1.06,2.36,1.5,3.57
				c0.66,1.84,1.47,3.63,2.08,5.48c0.53,1.64,0.97,3.3,1.52,4.93c0.63,1.77,1.01,3.59,1.49,5.4c0.34,1.29,0.7,2.56,0.99,3.86
				c0.6,2.71,1.32,5.4,1.88,8.12c0.16,0.8,0.25,1.59,0.3,2.42c0-0.02,0-0.03,0-0.04c0.04,0.57,0.08,1.14,0.14,1.72
				c0.14,0.17,0.22,0.38,0.24,0.6c0.02,0.2,0,0.4,0,0.6c0.01,0.04,0.01,0.08,0.02,0.13c0.03,0.1,0.06,0.2,0.08,0.29
				c0.04,0.18,0.06,0.35,0.07,0.54c0.03,0.6-0.01,1.19,0.02,1.79c-0.01-0.01-0.01-0.02-0.01-0.03c0,0.02,0,0.03,0.01,0.05
				c0-0.02,0-0.04,0-0.06c0,0.04,0,0.08,0,0.12l0.01,0.01c0,0,0,0-0.01-0.01c0,0.01,0.01,0.01,0.01,0.01
				c0.02,0.04,0.03,0.08,0.04,0.13c0,0,0,0-0.01,0c0.01,0.01,0.01,0.02,0.01,0.03v-0.01c0,0.01,0.01,0.02,0.01,0.03
				c0.06,0.22,0.07,0.45,0.09,0.69c0.04,0.49,0.11,0.99,0.17,1.48c0,0.02,0.01,0.03,0.01,0.03c0.08,0.34,0.11,0.68,0.11,1.01
				c0.03,0.33,0.04,0.66,0.04,0.99c0,0.21-0.02,0.42-0.06,0.61c0,0.06,0,0.12,0.01,0.18c0,0,0,0-0.01,0
				c0.01,0.08,0.02,0.18,0.03,0.27c0,0.02,0,0.03,0,0.05c0-0.01,0-0.02,0-0.02c0,0.02,0,0.03,0,0.04c0.01,0.01,0.01,0.02,0.01,0.03
				c0-0.01,0-0.02-0.01-0.03c0.08,1.09,0.06,2.19,0.02,3.26c-0.02,0.51-0.03,1.02-0.04,1.53c-0.02,0.39-0.03,0.76-0.04,1.14
				c-0.01,0.73-0.03,1.44-0.08,2.16c0.01-0.04,0.01-0.08,0.02-0.13c-0.02,0.16-0.03,0.32-0.04,0.47c0,0,0-0.01,0.01-0.02
				c-0.01,0.02-0.01,0.03-0.01,0.04c0,0.02,0,0.04,0,0.06c-0.01,0.03-0.01,0.05-0.01,0.08c-0.06,0.95-0.09,1.89-0.14,2.84
				c-0.03,0.7-0.03,1.38-0.03,2.08c0,1.1-0.01,2.2-0.03,3.29c-0.02,0.58-0.02,1.15-0.07,1.73c-0.04,0.4-0.08,0.8-0.11,1.2
				c-0.03,0.46-0.03,0.91-0.03,1.37c-0.02,0.75-0.04,1.52-0.09,2.27c0-0.01,0-0.01,0-0.02c-0.01,0.04-0.01,0.08-0.01,0.12
				c0,0.01,0,0.02,0,0.02c-0.06,0.95-0.14,1.89-0.24,2.81c-0.14,1.29-0.33,2.57-0.42,3.87c0-0.01,0-0.01,0-0.02
				c-0.07,0.8-0.19,1.58-0.3,2.38c-0.06,0.41-0.11,0.82-0.14,1.23c-0.02,0.22-0.03,0.43-0.05,0.65c-0.06,0.55-0.19,1.11-0.29,1.65
				c-0.13,0.68-0.19,1.37-0.28,2.05c-0.07,0.53-0.12,1.06-0.17,1.6c-0.05,0.6-0.15,1.21-0.27,1.81c-0.06,0.34-0.09,0.68-0.14,1.01
				c-0.07,0.56-0.15,1.12-0.23,1.69c-0.08,0.54-0.16,1.07-0.26,1.6c-0.14,0.67-0.33,1.32-0.48,1.99c-0.06,0.39-0.07,0.79-0.1,1.17
				c-0.02,0.26-0.05,0.53-0.07,0.79c0-0.01,0-0.02,0-0.02c-0.03,0.47-0.09,0.92-0.19,1.39c-0.09,0.4-0.23,0.79-0.33,1.18
				c-0.25,0.89-0.54,1.75-0.75,2.65c-0.03,0.16-0.05,0.32-0.08,0.48c0.03,0.21,0.03,0.41,0.01,0.62c-0.04,0.36-0.12,0.71-0.2,1.06
				c-0.07,0.24-0.15,0.49-0.25,0.73c-0.02,0.06-0.04,0.13-0.06,0.17c0,0,0,0,0-0.01c-0.03,0.07-0.06,0.13-0.1,0.18
				c-0.01,0.01-0.01,0.02-0.01,0.02s0,0,0-0.01c-0.01,0.02-0.02,0.03-0.03,0.05c0.01-0.02,0.02-0.03,0.02-0.03
				c0,0.01-0.01,0.02-0.01,0.03l-0.01,0.01c0,0.01-0.01,0.02-0.01,0.02c0,0.01,0,0.01,0,0.01c-0.02,0.03-0.04,0.06-0.06,0.08
				c-0.02,0.1-0.05,0.19-0.08,0.29c0,0,0,0,0-0.01c-0.03,0.08-0.05,0.14-0.08,0.21c-0.01,0.03-0.02,0.05-0.03,0.08
				c-0.01,0.01-0.01,0.02-0.01,0.03c0,0,0,0,0-0.01c-0.14,0.33-0.47,0.56-0.83,0.59c-0.17,0.1-0.34,0.15-0.53,0.15
				C707.1,759.39,706.79,759.24,706.62,758.97z"/>
			<path class="st1" d="M410.83,793.18c-3.92-0.55-7.85-2.66-9.45-6.47c-1.19-2.87-1.52-5.87-0.41-8.85
				c1.02-2.77,3.16-5.08,5.84-6.35c1.93-0.91,4.11-1.22,6.24-0.99c-0.07-0.02-0.14-0.03-0.21-0.05c0.19,0.03,0.38,0.06,0.57,0.09
				c0.76,0.11,1.51,0.28,2.24,0.52c-0.15-0.03-0.31-0.07-0.46-0.1c0.26,0.08,0.52,0.17,0.77,0.26c-0.05-0.04-0.1-0.07-0.16-0.11
				c2.75,0.96,5.13,2.88,6.32,5.64c0.92,1.85,1.33,3.92,1.15,5.99c-0.46,5.49-5.42,10.5-11.09,10.5
				C411.73,793.28,411.28,793.25,410.83,793.18z"/>
			<path class="st1" d="M404.54,783c-0.24-0.08-0.47-0.14-0.7-0.22c-0.75-0.26-1.3-0.81-1.68-1.49c-0.31-0.57-0.36-1.22-0.21-1.84
				c-0.57-1.27-0.08-2.72,1.08-3.54c0.16-0.11,0.32-0.23,0.48-0.34c0.2-0.17,0.4-0.33,0.62-0.48c0,0-0.01,0-0.01,0.01
				c0.53-0.41,1.02-0.88,1.53-1.32c0.88-0.75,1.82-1.32,2.85-1.87c-0.01,0.01-0.03,0.02-0.03,0.03c0.78-0.45,1.52-0.96,2.25-1.48
				c-0.03,0.02-0.04,0.03-0.07,0.05c0.04-0.03,0.08-0.06,0.13-0.09c0.04-0.03,0.07-0.05,0.1-0.08c0,0,0,0,0,0
				c0.01-0.01,0.03-0.02,0.04-0.03c0.01-0.01,0.02-0.01,0.03-0.02c0,0,0,0-0.01,0c0.05-0.03,0.09-0.07,0.14-0.1
				c-0.01,0.01-0.02,0.01-0.03,0.02c0.27-0.21,0.54-0.42,0.81-0.62c0.29-0.02,0.57-0.1,0.84-0.24c0.16-0.08,0.32-0.18,0.47-0.29
				c0.4-0.17,0.75-0.45,1.09-0.72c0.22-0.16,0.44-0.32,0.65-0.49c0.25-0.18,0.48-0.35,0.72-0.54c0.01-0.01,0.02-0.01,0.03-0.02
				c0.3-0.2,0.59-0.4,0.89-0.6c0,0-0.01,0.01-0.01,0.01c0.04-0.03,0.08-0.05,0.11-0.07c-0.02,0.01-0.03,0.02-0.05,0.03
				c0.02-0.01,0.03-0.02,0.05-0.03c0.15-0.1,0.3-0.19,0.45-0.29c0.19-0.06,0.38-0.12,0.58-0.17c-0.08,0.02-0.15,0.03-0.23,0.05
				c0.18-0.04,0.35-0.08,0.52-0.13c0.22-0.09,0.45-0.18,0.69-0.23c0.97-0.24,2.09,0.23,2.73,0.96c0.19,0.23,0.33,0.46,0.44,0.71
				c1.08,0.6,1.75,1.85,1.45,3.14c-0.21,0.9-0.82,1.43-1.46,2.04c0.09-0.08,0.18-0.17,0.27-0.25c-1.1,1.05-2.17,2.15-3.44,3.01
				c-1.32,0.91-2.74,1.61-4.16,2.37c-1.48,0.84-2.97,1.68-4.45,2.51c-0.61,0.34-1.22,0.7-1.82,1.05c-0.46,1.14-1.54,1.78-2.69,1.78
				C405.2,783.16,404.87,783.11,404.54,783z"/>
			<path class="st1" d="M413.17,794.7c-1.21-0.2-2.25-1.43-2.25-2.64c0-1.01,0.47-1.94,1.24-2.49c0.23-0.41,0.55-0.78,0.97-1.06
				c0.04-0.03,0.08-0.05,0.12-0.08c0.41-0.3,0.81-0.6,1.21-0.91c0.06-0.05,0.12-0.1,0.18-0.14c0.58-0.52,1.16-1.02,1.78-1.48
				c1.52-1.09,3.17-1.95,4.72-2.99c0.1-0.08,0.21-0.16,0.31-0.24c0.62-0.49,1.23-1.01,1.84-1.52c0.5-0.42,1.02-0.8,1.62-1.07
				c0.01,0,0.01,0.01,0.01,0.01c0.11-0.05,0.22-0.1,0.34-0.14c0.23-0.08,0.46-0.13,0.69-0.15c0.32-0.17,0.64-0.34,0.97-0.49
				c1.41-0.69,3.18-0.03,3.85,1.35c0.68,1.42,0.04,3.11-1.36,3.8c-0.43,0.22-0.86,0.44-1.29,0.68c-0.36,0.21-0.7,0.46-1.04,0.71
				c0.04-0.03,0.08-0.06,0.12-0.09c-0.4,0.31-0.8,0.62-1.2,0.92c-0.13,0.06-0.27,0.12-0.4,0.18c0.08-0.04,0.15-0.08,0.23-0.12
				c-0.84,0.39-1.74,0.87-2.26,1.66c-0.01,0.01-0.02,0.01-0.03,0.02c-0.86,0.57-1.75,1.04-2.68,1.5c-0.48,0.29-0.92,0.62-1.37,0.95
				c-0.3,0.23-0.61,0.47-0.91,0.7c-0.81,0.72-1.6,1.46-2.43,2.18c-0.72,0.63-1.47,1.01-2.36,1.01
				C413.57,794.75,413.37,794.73,413.17,794.7z"/>
			<path class="st1" d="M602.64,664.65c0.07-1.6,1.43-2.73,3-2.73c1.58,0,2.82,1.47,2.76,2.97c-0.07,1.6-1.43,2.73-3,2.73
				C603.82,667.62,602.58,666.15,602.64,664.65z"/>
			<path class="st1" d="M598.83,669.3c-0.89-1.24-0.62-3.11,0.69-3.97c0.3-0.2,0.61-0.41,0.91-0.61c0.06-0.04,0.13-0.08,0.2-0.12
				c8.02-5.32,16.02-10.68,24.02-16.02c8.91-5.95,17.84-11.91,26.76-17.85c9.28-6.18,18.57-12.37,27.85-18.56
				c8.85-5.92,17.71-11.82,26.58-17.73c7.09-4.73,14.19-9.47,21.28-14.2c1.3-0.86,3.09-0.6,4.01,0.68c0.89,1.25,0.61,3.11-0.69,3.97
				c-7.34,4.9-14.69,9.79-22.03,14.69c-8.83,5.89-17.68,11.8-26.52,17.68c-9.35,6.23-18.69,12.48-28.05,18.71
				c-8.91,5.93-17.81,11.88-26.71,17.82c-8.1,5.39-16.16,10.81-24.27,16.18c-0.52,0.34-1.1,0.5-1.68,0.5
				C600.27,670.49,599.39,670.09,598.83,669.3z"/>
			<path class="st2" d="M422.24,761.93c-0.87-0.24-1.6-0.89-1.93-1.74c-0.01-0.01-0.01-0.02-0.01-0.03
				c-0.21-0.55-0.23-1.14-0.1-1.68c0.09-0.55,0.16-1.09,0.24-1.64c-0.06-0.18-0.13-0.35-0.21-0.52c0.02,0.05,0.05,0.1,0.07,0.15
				c-0.37-0.86-0.56-1.8-0.82-2.71c0.01,0.05,0.03,0.09,0.04,0.14c-0.02-0.05-0.03-0.11-0.05-0.16c-0.02-0.07-0.04-0.13-0.06-0.2
				c0.02,0.06,0.03,0.11,0.05,0.17c-0.2-0.62-0.45-1.21-0.67-1.83c-0.41-1.2-0.73-2.41-1.19-3.6c-0.14-0.39-0.3-0.76-0.46-1.14
				c-0.2-0.49-0.3-1.02-0.41-1.55c-0.15-0.8-0.38-1.62-0.46-2.43c-0.06-0.6-0.16-1.2-0.25-1.81c0,0,0,0.01,0,0.01
				c0-0.01,0-0.02,0-0.03c-0.02-0.12-0.04-0.24-0.05-0.36c0.01,0.06,0.01,0.11,0.02,0.17c-0.15-0.86-0.32-1.71-0.46-2.57
				c-0.02-0.15-0.05-0.31-0.08-0.46c-0.11-0.61-0.24-1.21-0.33-1.82c-0.01-0.07-0.02-0.13-0.03-0.2c0.02,0.12,0.03,0.24,0.06,0.37
				c0-0.02-0.01-0.04-0.01-0.06c0.01,0.06,0.02,0.12,0.03,0.18c-0.01-0.04-0.01-0.08-0.02-0.12c-0.14-0.79-0.33-1.56-0.53-2.33
				c-0.25-1.02-0.34-2.08-0.47-3.13c-0.12-1.01-0.25-2.01-0.35-3.03c-0.13-1.33-0.34-2.68-0.36-4.02c-0.01-0.96-0.01-1.92,0-2.88
				c-0.01-0.05-0.02-0.11-0.03-0.16c-0.21-1.24-0.25-2.47-0.25-3.73c0-2.62,0.2-5.21,0.54-7.81c0.15-1.19,0.36-2.38,0.58-3.56
				c0.19-0.97,0.27-1.95,0.44-2.93c0.03-0.18,0.06-0.35,0.09-0.53c0.3-1.36,1.51-2.44,2.96-2.35c0.01,0,0.01,0.01,0.02,0.01
				c1.34,0.08,2.3,0.96,2.68,2.21c0.17,0.58,0.12,1.26,0.09,1.85c-0.02,0.39-0.05,0.79-0.08,1.18c-0.01,0.11-0.02,0.22-0.03,0.33
				c0.33,0.17,0.64,0.39,0.88,0.68c0.67,0.06,1.32,0.34,1.83,0.89c0.8,0.86,0.8,1.93,0.74,3.01c-0.05,0.9-0.11,1.79-0.18,2.68
				c-0.07,0.99-0.63,1.86-1.44,2.34c-0.07,0.39-0.14,0.79-0.2,1.19c-0.14,1.55-0.23,3.1-0.24,4.65c0.04,1.42,0.11,2.85,0.06,4.26
				c-0.03,0.7-0.06,1.38-0.11,2.08c-0.04,0.53-0.05,1.09-0.13,1.63c0.08,1.15,0.17,2.3,0.26,3.46c0.07,0.89,0.14,1.8,0.22,2.7
				c0.09,0.7,0.17,1.4,0.25,2.11c0.1,0.88-0.26,1.72-0.88,2.31c0.06,0.34,0.12,0.69,0.17,1.03c0.1,0.65,0.17,1.3,0.27,1.95
				c0.17,0.83,0.29,1.68,0.51,2.5c0.16,0.47,0.36,0.93,0.55,1.39c1.17,0.28,2.1,1.28,2.22,2.52c0.01,0.09,0.02,0.18,0.02,0.27
				c0.05,0.56,0.11,1.11,0.2,1.67c0.15,0.79,0.32,1.56,0.41,2.35c0.07,0.56,0.13,1.11,0.2,1.66c0.16,0.71,0.35,1.41,0.42,2.13
				c0.12,0.48,0.24,0.97,0.33,1.46c0.01,0.04,0.03,0.09,0.04,0.13c0.03,0.1,0.07,0.21,0.1,0.31c0.48,1.48-0.16,3.11-1.68,3.67
				c-0.32,0.12-0.65,0.17-0.99,0.17C423.56,762.8,422.78,762.48,422.24,761.93z"/>
			<path class="st2" d="M432.33,791.01c-0.65-0.92-1.27-1.82-1.74-2.85c0.05,0.12,0.1,0.23,0.15,0.34c-0.2-0.42-0.39-0.85-0.59-1.27
				c-0.07-0.17-0.13-0.32-0.19-0.54c-0.42-1.5,0.69-3.09,2.16-3.42c0.35-0.08,0.69-0.09,1.01-0.05c0.09-0.03,0.18-0.05,0.27-0.08
				c1.27-0.29,2.59,0.32,3.19,1.43c0.91,0.42,1.59,1.32,1.68,2.34c0.03,0.3,0.01,0.58-0.06,0.86c0,0,0,0,0,0
				c0.06,0.26,0.12,0.51,0.2,0.76c0.35,1.22-0.36,2.57-1.45,3.15c-0.39,0.21-0.85,0.32-1.3,0.33c-0.32,0.11-0.65,0.17-0.99,0.17
				C433.78,792.19,432.88,791.78,432.33,791.01z"/>
			<path class="st2" d="M460.38,597.81c-1.62-0.08-2.74-1.43-2.74-2.98c0-0.54,0.21-1.06,0.52-1.5c-0.02,0.03-0.05,0.06-0.07,0.09
				c0.11-0.17,0.24-0.32,0.36-0.48c-0.02,0.03-0.04,0.06-0.06,0.09c0.17-0.22,0.33-0.44,0.5-0.67c-0.07,0.1-0.14,0.2-0.21,0.3
				c0.21-0.29,0.44-0.58,0.66-0.86c0.09-0.13,0.18-0.26,0.26-0.4c0.26-0.51,0.51-1.03,0.78-1.54c-0.02,0.04-0.05,0.09-0.07,0.13
				c0.24-0.44,0.47-0.88,0.74-1.31c0.25-0.41,0.55-0.77,0.83-1.16c-0.08,0.1-0.14,0.19-0.22,0.29c0.34-0.47,0.69-0.94,0.99-1.43
				c0.45-0.85,0.85-1.72,1.31-2.57c0.02-0.04,0.05-0.08,0.07-0.13c0.78-1.38,1.69-2.66,2.66-3.93c0.61-0.89,1.05-1.88,1.76-2.69
				c0.72-0.83,1.56-1.58,2.34-2.37c0.53-0.59,1.07-1.18,1.58-1.79c0.49-0.6,0.95-1.21,1.48-1.76c0.91-0.95,2.19-2.04,3.59-1.93
				c-0.14,0.01-0.26,0.01-0.39,0.02c0,0.01-0.01,0.01-0.01,0.02c1-0.1,2.02,0.26,2.62,1.15c0.85,1.27,0.58,2.79-0.39,3.71
				c-0.04,0.05-0.08,0.1-0.12,0.14c-1.04,1.45-1.87,3.02-2.93,4.45c0.08-0.1,0.14-0.19,0.22-0.29c-0.78,1.05-1.48,2.14-2.27,3.18
				c0.08-0.1,0.15-0.2,0.22-0.29c-0.13,0.18-0.26,0.36-0.4,0.54c-0.39,0.56-0.79,1.11-1.18,1.67c-0.13,0.18-0.25,0.36-0.37,0.55
				c-0.05,0.75-0.32,1.43-0.6,2.13c-0.3,0.77-0.68,1.53-1.11,2.24c-0.11,0.79-0.42,1.41-0.99,2c-0.25,0.26-0.54,0.45-0.85,0.58
				c-0.36,0.42-0.76,0.77-1.34,0.97c-0.6,0.21-1.24,0.22-1.82,0.06c-0.17,0.3-0.33,0.59-0.5,0.89c0.04-0.06,0.07-0.13,0.11-0.2
				c-0.31,0.55-0.53,1.13-0.85,1.68c-0.23,0.43-0.56,0.8-0.86,1.18c-0.21,0.28-0.42,0.56-0.63,0.84c-0.52,0.82-1.49,1.37-2.48,1.37
				C460.46,597.81,460.42,597.81,460.38,597.81z"/>
			<path class="st2" d="M458.8,598.25c-1.58-0.07-2.69-1.36-2.74-2.86c0.02-0.78,0.33-1.41,0.8-2.04c-0.05,0.07-0.11,0.14-0.16,0.22
				c0.21-0.3,0.4-0.61,0.58-0.93c0.59-1.09,1.16-2.18,1.84-3.22c0.35-0.54,0.68-1.11,1.07-1.63c0.34-0.46,0.72-0.9,1.08-1.36
				c0.56-1.06,1.04-2.16,1.68-3.17c0.48-0.76,1.09-1.39,1.64-2.08c0.74-1.11,1.38-2.29,2.07-3.44c0.68-1.11,1.61-2.05,2.39-3.09
				c0.5-0.7,0.97-1.41,1.4-2.15c0.57-1.02,1.14-2,1.87-2.94c0.33-0.43,0.73-0.8,1.05-1.22c0.49-0.65,1-1.3,1.5-1.95
				c0.45-0.92,1.07-1.7,1.72-2.51c0.83-1.01,1.72-1.96,2.63-2.91c0.01-0.01,0.02-0.02,0.03-0.03c0.17-0.24,0.33-0.48,0.49-0.71
				c0.48-0.65,1.02-1.25,1.61-1.8c0.42-0.39,0.87-0.75,1.28-1.16c0.29-0.33,0.57-0.67,0.88-0.99c0.21-0.23,0.45-0.43,0.66-0.65
				c-0.08,0.09-0.17,0.18-0.25,0.27c0.04-0.04,0.08-0.08,0.12-0.13c0.48-0.51,0.96-1,1.42-1.53c0.27-0.32,0.54-0.64,0.85-0.91
				c0.17-0.15,0.36-0.29,0.52-0.45c0.93-0.98,2.47-1.23,3.66-0.49c1.3,0.83,1.74,2.64,0.88,3.94c-0.36,0.54-0.86,0.89-1.31,1.34
				c0.02-0.02,0.03-0.04,0.05-0.06c-0.61,0.65-1.19,1.33-1.8,1.98c-0.25,0.26-0.52,0.5-0.77,0.76c-0.5,0.54-0.95,1.1-1.51,1.58
				c-0.39,0.34-0.77,0.68-1.13,1.04c-0.13,0.15-0.26,0.3-0.39,0.46c-0.18,0.25-0.35,0.51-0.53,0.76c-0.29,0.42-0.65,0.77-1.01,1.14
				c-0.9,0.96-1.81,1.95-2.6,3c-0.1,0.16-0.2,0.32-0.3,0.48c-0.02,0.04-0.04,0.09-0.07,0.13c0.01-0.02,0.02-0.04,0.02-0.06
				c0,0.01-0.01,0.01-0.01,0.02c-0.44,0.98-1.25,1.82-1.89,2.68c-0.43,0.57-0.93,1.08-1.38,1.65c-0.34,0.47-0.67,0.96-0.96,1.48
				c0.06-0.11,0.12-0.22,0.18-0.33c-0.64,1.18-1.3,2.34-2.1,3.43c-0.6,0.83-1.29,1.58-1.92,2.39c-0.57,0.8-1.06,1.68-1.57,2.53
				c-0.47,0.8-0.94,1.6-1.54,2.32c-0.3,0.36-0.6,0.72-0.9,1.09c-0.18,0.26-0.35,0.54-0.51,0.82c-0.53,1.02-0.94,2.11-1.65,3.02
				c-0.36,0.47-0.74,0.92-1.1,1.39c-0.52,0.75-1.01,1.54-1.46,2.34c-0.54,0.99-1.03,1.98-1.66,2.92c-0.47,0.96-1.54,1.63-2.63,1.63
				C458.88,598.25,458.84,598.25,458.8,598.25z"/>
			<path class="st2" d="M440.74,625.48c-1.04-1.11-1.04-3.02,0.14-4.03c0.07-0.06,0.15-0.13,0.22-0.2c0.81-0.87,1.62-1.79,2.9-1.92
				c1.56-0.15,2.98,1.04,3.13,2.58c0.09,1.02-0.38,1.97-1.16,2.54c-0.11,0.1-0.21,0.21-0.32,0.31c-0.27,0.29-0.54,0.6-0.84,0.86
				c-0.57,0.49-1.29,0.74-1.99,0.74C442.06,626.37,441.31,626.08,440.74,625.48z"/>
			<path class="st2" d="M433.56,633.63c-0.17-1.43,0.57-2.91,1.3-4.1c0.51-0.83,1-1.67,1.49-2.51c0.47-0.84,1.02-1.65,1.5-2.49
				c0.61-1.06,1.48-1.97,2.24-2.95c0.31-0.43,0.62-0.88,0.89-1.34c0.49-0.88,1.04-1.7,1.72-2.45c0.01-0.01,0.01-0.01,0.02-0.02
				c-0.01,0.01-0.01,0.01-0.02,0.02c0.01-0.01,0.01-0.01,0.02-0.02c0.57-0.72,1.5-1.18,2.44-1.14c1.62,0.07,2.74,1.43,2.74,2.98
				c0,0.96-0.5,1.53-1.08,2.13c-0.02,0.02-0.04,0.04-0.05,0.07c-0.27,0.37-0.53,0.76-0.75,1.16c0.06-0.11,0.12-0.22,0.18-0.33
				c-0.4,0.72-0.84,1.43-1.31,2.1c-0.59,0.82-1.27,1.58-1.86,2.39c-0.65,0.93-1.23,1.93-1.79,2.92c-0.54,0.94-1.14,1.86-1.68,2.8
				c-0.07,0.13-0.13,0.27-0.19,0.41c-0.02,0.05-0.04,0.1-0.05,0.15c0,1.42-1.19,2.67-2.63,2.8c-0.09,0.01-0.17,0.01-0.26,0.01
				C434.95,636.22,433.73,635.08,433.56,633.63z"/>
			<path class="st2" d="M426.4,657.09c-1.51-0.48-2.32-2.1-1.86-3.58c0.11-0.36,0.23-0.7,0.32-1.06c-0.03,0.12-0.06,0.23-0.08,0.36
				c0.23-0.94,0.51-1.87,0.79-2.79c0.23-0.73,0.46-1.48,0.76-2.19c0.19-0.44,0.42-0.86,0.59-1.31c-0.02,0.06-0.04,0.12-0.07,0.17
				c0.12-0.3,0.26-0.59,0.38-0.89c0.16-0.42,0.28-0.84,0.39-1.26c0,0.02-0.01,0.03-0.01,0.05c0.45-1.66,1.12-3.19,1.96-4.69
				c-0.06,0.11-0.12,0.22-0.18,0.33c0.12-0.21,0.23-0.41,0.35-0.61c0.08-0.15,0.15-0.31,0.22-0.47c0.24-0.64,0.46-1.28,0.72-1.92
				c0.43-1.05,1.08-2,1.69-2.96c0.38-0.62,0.75-1.26,1.13-1.89c0.89-1.49,2.24-3.65,4.27-3.5c1.1,0.08,2.23,0.76,2.57,1.84
				c0.38,1.18,0.08,2.19-0.71,3.07c0.04-0.05,0.09-0.09,0.13-0.14c-0.11,0.12-0.21,0.25-0.31,0.39c0.01-0.01,0.01-0.02,0.02-0.03
				c-0.09,0.12-0.17,0.25-0.25,0.37c-0.15,0.29-0.28,0.59-0.44,0.88c-0.11,0.21-0.25,0.4-0.37,0.6c-0.39,0.7-0.78,1.41-1.18,2.11
				c-0.14,0.86-0.71,1.61-1.48,2.04c-0.11,0.3-0.22,0.59-0.32,0.89c-0.23,0.67-0.55,1.27-0.9,1.88c-0.31,0.58-0.64,1.16-0.88,1.76
				c0.04-0.12,0.09-0.23,0.14-0.34c-0.18,0.46-0.38,0.93-0.51,1.4c-0.14,0.58-0.27,1.17-0.48,1.73c-0.16,0.45-0.37,0.88-0.55,1.32
				c0.04-0.11,0.09-0.23,0.14-0.34c-0.25,0.65-0.54,1.26-0.82,1.89c-0.27,0.73-0.49,1.5-0.7,2.25c-0.13,0.47-0.3,0.93-0.43,1.41
				c-0.01,0.03-0.02,0.06-0.02,0.09c0-0.01,0-0.02,0.01-0.03c-0.01,0.02-0.01,0.05-0.02,0.07c-0.11,0.42-0.24,0.83-0.37,1.25
				c-0.37,1.2-1.55,1.98-2.77,1.98C426.96,657.22,426.68,657.18,426.4,657.09z"/>
			<path class="st2" d="M661.75,589.25c-0.53-0.83-1.02-1.69-1.52-2.53c0.06,0.11,0.13,0.21,0.19,0.32
				c-0.94-1.55-2.04-2.98-3.05-4.49c-0.53-0.8-1.11-1.6-1.54-2.47c-0.45-0.9-0.95-1.78-1.47-2.66c-0.27-0.43-0.58-0.81-0.88-1.22
				c-0.29-0.4-0.56-0.81-0.86-1.21c-0.03-0.03-0.05-0.07-0.08-0.1c0.01,0.02,0.03,0.03,0.04,0.05c0,0-0.01-0.01-0.01-0.01
				c-0.04-0.05-0.07-0.09-0.11-0.14c-0.03-0.04-0.07-0.08-0.1-0.12c0.01,0.01,0.01,0.02,0.02,0.02c-0.3-0.37-0.59-0.73-0.85-1.11
				c-0.23-0.33-0.43-0.67-0.67-0.98c-0.42-0.5-0.86-0.98-1.27-1.49c0.03,0.04,0.06,0.08,0.09,0.12c-0.53-0.66-1.11-1.25-1.54-1.99
				c-0.42-0.7-0.77-1.43-1.19-2.11c0.06,0.1,0.13,0.21,0.19,0.32c-0.4-0.66-0.81-1.32-1.28-1.93c-1.14-1.38-2.37-2.7-3.48-4.1
				c0.08,0.1,0.15,0.19,0.23,0.29c-0.57-0.7-1.2-1.38-1.85-2.01c-0.06-0.05-0.12-0.11-0.19-0.16c-0.49-0.35-0.94-0.7-1.31-1.17
				c-0.82-1.05-0.65-2.6,0.19-3.58c0.83-0.96,2.13-1.26,3.35-0.92c0.79,0.23,1.53,0.94,1.93,1.72c0.29,0.28,0.57,0.56,0.83,0.87
				c0.31,0.36,0.67,0.69,0.99,1.05c0.33,0.37,0.63,0.76,0.93,1.14c0.91,1.11,1.9,2.13,2.81,3.25c1.15,1.43,1.97,3.05,2.89,4.62
				c0.06,0.08,0.12,0.16,0.18,0.24c0.41,0.5,0.84,0.99,1.25,1.49c-0.05-0.06-0.09-0.12-0.14-0.17c0.43,0.54,0.93,1.01,1.33,1.58
				c0.27,0.39,0.52,0.79,0.8,1.17c0.14,0.17,0.28,0.35,0.42,0.52c-0.04-0.05-0.08-0.1-0.12-0.14c0.41,0.51,0.8,1.04,1.17,1.58
				c0.3,0.43,0.65,0.83,0.93,1.27c0.5,0.78,0.94,1.6,1.41,2.41c0.27,0.47,0.49,0.96,0.76,1.43c-0.04-0.06-0.08-0.12-0.12-0.18
				c0.05,0.08,0.1,0.16,0.15,0.23c0.02,0.03,0.03,0.06,0.05,0.08c-0.01-0.02-0.02-0.04-0.04-0.07c0.74,1.18,1.52,2.37,2.37,3.47
				c0.95,1.21,1.68,2.58,2.46,3.89c0.14,0.23,0.29,0.45,0.44,0.68c0.84,1.32,0.6,3.06-0.73,3.97c-0.48,0.33-1.07,0.5-1.65,0.5
				C663.18,590.46,662.26,590.05,661.75,589.25z"/>
			<path class="st2" d="M666.09,594.63c-0.86-1.25-1.74-2.47-2.68-3.66c0.08,0.09,0.15,0.19,0.23,0.28
				c-0.43-0.54-0.84-1.08-1.27-1.62c0.02,0.02,0.03,0.04,0.05,0.06c-0.67-0.84-1.3-1.67-1.85-2.59c-0.25-0.42-0.5-0.86-0.75-1.29
				c0.03,0.04,0.06,0.09,0.08,0.13c-0.06-0.09-0.12-0.19-0.17-0.28c-0.01-0.01-0.01-0.02-0.02-0.03c0,0,0,0.01,0.01,0.01
				c-0.21-0.34-0.41-0.67-0.61-1.01c-0.49-0.76-1.08-1.48-1.65-2.19c0.08,0.09,0.16,0.19,0.24,0.29c-0.35-0.43-0.71-0.82-1.04-1.26
				c-0.44-0.6-0.78-1.3-1.17-1.94c0.01,0.01,0.01,0.02,0.02,0.03c-0.05-0.09-0.11-0.18-0.16-0.27c0,0.01,0.01,0.01,0.01,0.01
				c0-0.01-0.01-0.01-0.01-0.02c-0.06-0.1-0.12-0.2-0.18-0.3c0.01,0.02,0.03,0.05,0.04,0.07c-0.32-0.5-0.64-0.99-0.99-1.45
				c-0.17-0.21-0.35-0.41-0.54-0.59c0.06,0.06,0.13,0.12,0.19,0.18c-1-0.97-2.05-2.01-2.79-3.19c-0.83-1.32-0.61-3.05,0.73-3.97
				c1.24-0.86,3.18-0.6,4.01,0.72c0.12,0.18,0.24,0.36,0.37,0.53c0.46,0.56,0.95,1.1,1.46,1.62c0.03,0.03,0.05,0.05,0.08,0.08
				c0,0,0.01,0.01,0.01,0.01c0,0,0,0,0,0c0.96,0.98,1.73,2.05,2.45,3.22c0.35,0.58,0.69,1.15,1.04,1.73
				c0.08,0.12,0.15,0.24,0.24,0.36c0.55,0.69,1.11,1.38,1.65,2.08c0.6,0.77,1.09,1.6,1.6,2.44c-0.07-0.11-0.13-0.21-0.19-0.32
				c0.42,0.7,0.83,1.41,1.25,2.1c0.31,0.47,0.65,0.92,1.01,1.36c-0.08-0.09-0.15-0.19-0.23-0.28c0.35,0.44,0.68,0.89,1.03,1.33
				c0.66,0.82,1.32,1.63,1.94,2.48c0.55,0.76,1.04,1.58,1.61,2.33c0.02,0.02,0.04,0.05,0.06,0.07c0.01,0,0.01,0.01,0.02,0.01
				c0.75,0.46,1.28,1.23,1.35,2.18c0.12,1.52-1.08,2.99-2.65,3.06c-0.05,0-0.11,0-0.16,0C668.09,597.14,666.96,595.89,666.09,594.63
				z"/>
			<path class="st2" d="M669.42,596.08c-1.01-0.06-1.81-0.61-2.27-1.38c-0.47-0.56-0.92-1.11-1.27-1.77
				c-0.37-0.7-0.69-1.43-1.09-2.12c-0.14-0.21-0.29-0.41-0.45-0.61c0.02,0.02,0.03,0.04,0.05,0.06c-0.33-0.39-0.69-0.74-1.02-1.14
				c-0.26-0.34-0.53-0.69-0.75-1.06c-0.58-0.91-1.06-1.88-1.61-2.81c-0.11-0.17-0.22-0.34-0.34-0.51c-0.02-0.02-0.04-0.04-0.06-0.07
				c-0.21-0.2-0.42-0.4-0.61-0.63c-0.19-0.25-0.37-0.5-0.56-0.75c-0.3-0.35-0.62-0.69-0.88-1.06c-0.31-0.44-0.64-0.9-0.95-1.34
				c-0.65-0.9-1.23-1.86-1.92-2.74c-0.34-0.42-0.62-0.86-0.91-1.33c0.05,0.08,0.09,0.15,0.14,0.23c-0.27-0.44-0.58-0.83-0.86-1.26
				c-0.23-0.34-0.44-0.71-0.69-1.05c-0.48-0.53-0.75-1.24-0.71-2.02c0.09-1.52,1.48-2.82,3.05-2.67c0.98,0.08,1.69,0.56,2.29,1.31
				c0.23,0.29,0.41,0.61,0.61,0.91c0.47,0.71,0.97,1.4,1.42,2.14c-0.02-0.03-0.05-0.06-0.07-0.08c0.03,0.03,0.05,0.07,0.08,0.1
				c0,0,0,0.01,0.01,0.01c0,0,0-0.01,0-0.01c1.21,1.52,2.22,3.19,3.39,4.74c0.13,0.14,0.26,0.28,0.39,0.43
				c0.21,0.25,0.39,0.52,0.59,0.78c0.06,0.06,0.11,0.12,0.17,0.18c-0.04-0.04-0.08-0.08-0.12-0.12c0,0,0,0,0,0.01
				c0.68,0.67,1.19,1.39,1.68,2.22c0.43,0.72,0.81,1.46,1.23,2.18c0.21,0.32,0.43,0.63,0.67,0.94c0.31,0.35,0.64,0.66,0.92,1.03
				c0.39,0.49,0.73,0.99,1.03,1.54c0.38,0.68,0.69,1.39,1.06,2.08c0.08,0.11,0.16,0.22,0.25,0.32c0-0.01-0.01-0.01-0.01-0.02
				c0.32,0.38,0.63,0.76,0.86,1.2c0-0.01-0.01-0.02-0.01-0.02c0,0.01,0.01,0.02,0.01,0.02c0,0.01,0.01,0.02,0.01,0.03
				c0.04,0.1,0.09,0.19,0.13,0.29c-0.04-0.09-0.08-0.17-0.11-0.26c0.19,0.45,0.28,0.88,0.28,1.4c0,1.5-1.44,2.68-2.89,2.68
				C669.53,596.08,669.48,596.08,669.42,596.08z"/>
			<path class="st2" d="M689.56,636.92c-0.6-1.27-0.97-2.63-1.5-3.92c-0.14-0.31-0.32-0.61-0.49-0.91c-0.24-0.37-0.5-0.73-0.72-1.13
				c-0.21-0.41-0.39-0.84-0.58-1.26c-0.03-0.06-0.05-0.12-0.08-0.17c0.05,0.11,0.1,0.23,0.15,0.34c-0.24-0.53-0.49-1.06-0.68-1.6
				c-0.1-0.26-0.18-0.53-0.28-0.79c-0.11-0.23-0.25-0.44-0.36-0.66c-0.18-0.34-0.3-0.7-0.45-1.04c0.04,0.08,0.07,0.16,0.11,0.24
				c-0.24-0.55-0.37-1.08-0.46-1.66c0,0,0,0,0,0c0.01,0.04,0.01,0.08,0.02,0.12c-0.01-0.05-0.02-0.1-0.03-0.15
				c-0.1-0.28-0.21-0.55-0.31-0.83c-0.12-0.34-0.2-0.7-0.33-1.05c-0.04-0.09-0.09-0.17-0.13-0.25c-0.07-0.11-0.15-0.22-0.22-0.33
				c-0.33-0.38-0.68-0.75-0.97-1.16c-0.44-0.6-0.57-1.27-0.57-1.99c0-1.55,1.55-2.77,3.05-2.67c1.07,0.06,1.9,0.67,2.34,1.52
				c0.42,0.5,0.85,0.97,1.2,1.54c0.38,0.61,0.68,1.24,0.89,1.94c0.13,0.44,0.27,0.87,0.45,1.29c0.18,0.44,0.26,0.9,0.33,1.36
				c0,0,0,0,0,0c0,0,0,0,0,0c0,0,0,0,0,0c0,0,0,0,0,0c0,0.01,0,0.02,0.01,0.03c0.06,0.14,0.12,0.28,0.18,0.41
				c0.23,0.48,0.51,0.92,0.7,1.42c0.17,0.41,0.29,0.84,0.45,1.24c0.13,0.29,0.26,0.58,0.38,0.86c-0.02-0.05-0.04-0.1-0.06-0.15
				c0.07,0.15,0.13,0.3,0.2,0.44c0.09,0.19,0.18,0.39,0.29,0.57c0.31,0.48,0.61,0.97,0.89,1.46c0.36,0.61,0.56,1.3,0.85,1.95
				c0.34,0.79,0.57,1.63,0.89,2.43c0.01,0.03,0.03,0.07,0.04,0.1c0.01,0.03,0.03,0.06,0.04,0.09c-0.01-0.02-0.02-0.05-0.03-0.07
				c0.53,1.38,0.06,2.95-1.32,3.66c-0.4,0.21-0.85,0.3-1.3,0.3C691.07,638.46,690.01,637.91,689.56,636.92z"/>
		</g>
	</g>
</g>
</svg>
